<svg width="26px" height="28px" viewBox="56 7 26 28" version="1.1" xmlns="http://www.w3.org/2000/svg" xmlns:xlink="http://www.w3.org/1999/xlink">
    <g fill-rule="evenodd" transform="translate(56.000000, 7.050000)">
        <path d="M6.39686667,26.1257781 C2.86924444,26.1257781 0,23.236039 0,19.6835105 L0,8.87346571 C0,7.84087571 0.831133333,7.00351476 1.85697778,7.00351476 C2.88282222,7.00351476 3.71395556,7.84087571 3.71395556,8.87346571 L3.71395556,19.6838014 C3.71395556,21.1737686 4.91746667,22.3858762 6.39686667,22.3858762 C7.87626667,22.3858762 9.07977778,21.1737686 9.07977778,19.6838014 C9.07891111,18.6640133 8.51875556,17.7419852 7.61568889,17.2750067 C6.70337778,16.8036638 6.34284444,15.6768052 6.81084444,14.7568138 C7.27884444,13.8374043 8.39857778,13.4751686 9.31088889,13.9456386 C11.4582,15.055331 12.7937333,17.2537671 12.7937333,19.6832195 C12.7934444,23.236039 9.92448889,26.1257781 6.39686667,26.1257781 L6.39686667,26.1257781 Z" fill="#F8F9F7"></path>
        <path d="M17.5398889,21.5546252 C16.5140444,21.5546252 15.6820444,20.7166824 15.6820444,19.6835105 C15.6820444,15.1853867 12.5013778,11.3180476 8.1198,10.491161 C7.111,10.3008781 6.44742222,9.3232781 6.6352,8.3090181 C6.82471111,7.29301238 7.79653333,6.62411286 8.8036,6.81468667 C14.9413333,7.9729681 19.3965778,13.3855552 19.3965778,19.6835105 C19.3968667,20.7166824 18.5648667,21.5546252 17.5398889,21.5546252 L17.5398889,21.5546252 Z" fill="#F8F9F7"></path>
        <path d="M24.1430222,21.5546252 C23.1171778,21.5546252 22.2851778,20.7166824 22.2851778,19.6835105 C22.2851778,11.5548829 16.2497111,4.72157524 8.24662222,3.7882 C7.22771111,3.66920048 6.49797778,2.74106238 6.61497778,1.71487333 C6.73342222,0.688975238 7.65006667,-0.0445157143 8.67417778,0.0718652381 C18.5512889,1.22403667 26,9.65525476 26,19.6835105 C26,20.7166824 25.1688667,21.5546252 24.1430222,21.5546252 L24.1430222,21.5546252 Z" fill="#F8F9F7"></path>
    </g>
</svg>
