<svg width="200px" height="130px" viewBox="70 0 200 130" version="1.1" xmlns="http://www.w3.org/2000/svg" xmlns:xlink="http://www.w3.org/1999/xlink">
    <g id="empower" stroke="none" stroke-width="1" fill="none" fill-rule="evenodd" transform="translate(70.000000, 0.000000)">
        <path d="M57.2320935,9.11398374 C55.4192886,5.14304878 51.4327033,2.36825203 46.7806707,2.36825203 C42.0818902,2.36825203 38.0581098,5.19772358 36.2727439,9.23308943 L17.5477439,13.9904065 L17.5477439,18.4023984 L75.2957114,18.4023984 L75.2957114,13.9904065 L75.2957114,13.9806504 L57.2320935,9.11398374 Z" fill="#6DAC6E"></path>
        <path d="M44.0549593,94.51 C44.0596341,94.5829675 44.0669512,94.655122 44.0681707,94.7289024 L44.068374,94.734187 L44.068374,94.7394715 C44.0787398,95.8254472 43.7130894,96.7984146 43.0391057,97.4789024 C43.019187,97.4990244 42.9988618,97.5189431 42.9785366,97.5384553 C43.7771138,97.7815447 44.4277236,98.288252 44.8738618,98.984187 L44.8746748,94.3079675 C44.6155285,94.4089837 44.3413415,94.4797154 44.0549593,94.51" fill="#6DAC6E"></path>
        <path d="M40.0773374,114.194146 C40.4370935,114.057154 40.8216463,113.982561 41.2183943,113.982561 C42.0759146,113.982561 42.8814024,114.316911 43.4844512,114.921789 L44.8712398,116.307154 L44.8732724,103.872805 C44.4269309,104.567724 43.7763211,105.073618 42.9775407,105.316504 C42.9982724,105.336423 43.0188008,105.356748 43.0393293,105.377276 C43.7131098,106.057561 44.0785569,107.030325 44.0683943,108.116504 L44.0681911,108.121789 L44.0681911,108.127073 C44.0316057,110.294959 42.4807927,112.15187 40.3753049,112.54313 C40.0281504,112.606341 39.6797764,112.66752 39.3305894,112.72687 C39.3543699,112.75248 39.3779472,112.778496 39.4009146,112.805122 C39.7427846,113.199228 39.9681911,113.673821 40.0773374,114.194146" fill="#6DAC6E"></path>
        <path d="M42.8503252,122.027134 C41.9944309,122.027134 41.1897561,121.693394 40.584878,121.08811 L38.9543902,119.458232 C38.6669919,119.172256 38.4430081,118.840346 38.284065,118.480589 C37.675935,118.944614 36.9562195,119.269207 36.1710569,119.400915 L36.1592683,119.402947 L36.1472764,119.404776 C35.7889431,119.458638 35.4295935,119.510467 35.0696341,119.560264 C35.4720732,120.194614 35.5978862,120.989329 35.4135366,121.783232 L35.3456504,122.076321 L35.1647561,122.316768 C34.2493089,123.534248 32.8466667,124.389126 30.8930081,124.917175 C31.2696341,127.64502 34.2472764,129.773476 37.8594715,129.773476 C41.734065,129.773476 44.8700407,127.334654 44.8700407,124.332215 L44.8704472,121.311077 C44.2997154,121.774695 43.5940244,122.027134 42.8503252,122.027134" fill="#6DAC6E"></path>
        <path d="M55.6267886,43.7578252 C54.94,44.0972561 54.2219106,44.4090447 53.4739431,44.6824187 L53.4739431,44.6917683 C51.5048374,45.3958333 49.3113415,45.9015244 46.8607317,46.0236789 C43.2097154,46.2244919 39.9861382,45.3112805 37.2542276,43.9610772 L37.2542276,27.6596545 C39.3245528,30.7094512 42.8176423,32.7155488 46.7786179,32.7155488 C50.335935,32.7155488 53.4757724,31.066565 55.5869512,28.5318089 L55.5869512,31.9104675 L55.6267886,31.9104675 L55.6267886,43.7578252 Z M74.8747561,48.7102642 C74.8747561,43.4125 72.3107317,38.1905488 67.8928455,35.1913618 L67.8928455,20.1840447 L65.0536179,20.1840447 L65.0139837,31.9104675 L65.0536179,35.9212398 C64.3160163,36.889126 61.9686585,39.7614837 58.3761789,42.167378 L58.3761789,20.1840447 L53.4739431,20.1840447 L34.5048374,20.1840447 L34.5048374,42.3706301 C30.9123577,39.9647358 28.5647967,37.092378 27.8273984,36.1244919 L27.8273984,20.1840447 L24.9881707,20.1840447 L24.9881707,35.3946138 C20.7828862,38.2494919 18.2589024,43.1185976 18.0257724,48.1498984 C17.9255691,48.791565 17.8727236,49.4490854 17.8727236,50.1200203 L17.8727236,77.3096545 C18.4843089,77.2848577 19.088374,77.2761179 19.6729268,77.2761179 C20.1713008,77.2761179 20.6515854,77.2818089 21.0755691,77.2870935 C21.4379675,77.291565 21.7743496,77.2956301 22.0834959,77.2956301 C22.3857317,77.2956301 22.7210976,77.2913618 23.0824797,77.2868902 C23.5093089,77.2816057 23.9930488,77.2757114 24.4956911,77.2757114 C25.5341057,77.2757114 26.6339024,77.3033537 27.7282114,77.3998984 L27.7282114,50.9169715 L30.865813,50.9169715 L30.8611382,75.3484756 C30.9345122,75.2574187 31.011748,75.1690041 31.0956911,75.0852642 L32.7286179,73.4519309 C33.3336992,72.8468496 34.1385772,72.5135163 34.9950813,72.5135163 C35.8515854,72.5135163 36.6564634,72.8468496 37.2623577,73.4527439 C37.8680488,74.059248 38.2015854,74.8643293 38.2015854,75.7198171 C38.2015854,76.5765244 37.8672358,77.3818089 37.2619512,77.985061 L35.6322764,79.615752 C35.4048374,79.8442073 35.1491463,80.034248 34.8731301,80.1822154 C34.9773984,80.3011179 35.0784146,80.4230691 35.1727236,80.5515244 L35.3458943,80.7868902 C35.5973171,81.8663618 35.4717073,82.6620935 35.0684553,83.2968496 C35.4284146,83.3464431 35.7879675,83.3984756 36.1465041,83.4523374 C38.1566667,83.7856707 39.7389837,85.3427846 40.1054472,87.3303862 C40.1637805,87.7314024 40.1635772,88.0655488 40.1235366,88.3860772 C40.5229268,88.211687 40.9566667,88.1177846 41.4060569,88.1177846 L43.7154065,88.117378 C44.1251626,88.117378 44.5154065,88.1972561 44.8755691,88.3377033 L44.8761789,83.967378 L47.9969106,83.967378 L47.9769919,124.332215 C47.9769919,127.334654 51.1145935,129.773476 54.9845122,129.773476 C58.8544309,129.773476 61.9904065,127.334654 61.9904065,124.332215 L62.0210976,50.915752 L65.0942683,50.915752 L65.0942683,63.7045732 L66.5958943,63.6692073 L67.5290244,63.7462398 C70.085122,63.9545732 72.5589024,64.5610772 74.8747561,65.513313 L74.8747561,50.2972561 C74.8747561,50.1301829 74.8713008,49.963313 74.8647967,49.7966463 L74.8747561,48.7102642 Z" id="Fill-9" fill="#6DAC6E"></path>
        <path d="M40.1445935,92.585813 C40.4663415,92.907561 40.9124797,93.1063415 41.4043496,93.1063415 L41.4063821,93.1063415 L43.7153252,93.1057317 L43.7163415,93.1057317 C44.7002846,93.1057317 45.4970325,92.309187 45.4986585,91.3228049 C45.4986585,90.339065 44.6996748,89.5400813 43.7157317,89.5400813 L41.4063821,89.5406911 L41.4043496,89.5406911 C40.4214228,89.5406911 39.622439,90.3396748 39.6236585,91.3234146 C39.6218293,91.8156911 39.8218293,92.2630488 40.1445935,92.585813" fill="#6DAC6E"></path>
        <path d="M4.47565041,100.616098 C4.79739837,100.937846 5.24353659,101.136626 5.7354065,101.136626 L5.73743902,101.136626 L8.04638211,101.136016 L8.04739837,101.136016 C9.03134146,101.136016 9.82808943,100.339472 9.82971545,99.3530894 C9.82971545,98.3693496 9.03073171,97.5703659 8.04678862,97.5703659 L5.73743902,97.5709756 L5.7354065,97.5709756 C4.75247967,97.5709756 3.95349593,98.3699593 3.95471545,99.3536992 C3.95288618,99.8459756 4.15288618,100.293333 4.47565041,100.616098" fill="#6DAC6E"></path>
        <path d="M42.4788821,115.928293 C42.1313211,115.579715 41.6748171,115.405325 41.218313,115.405325 C40.7620122,115.405325 40.3057114,115.579512 39.9579472,115.928293 C39.6085569,116.276057 39.4337602,116.733374 39.4337602,117.189065 C39.4337602,117.644756 39.6081504,118.101463 39.9579472,118.449837 L41.590874,120.081951 C41.9388415,120.430325 42.3943293,120.604309 42.8504268,120.604309 C43.3063211,120.604309 43.7628252,120.430325 44.1128252,120.081951 C44.8081504,119.385407 44.8081504,118.255935 44.1128252,117.56061 L42.4788821,115.928293 Z" fill="#6DAC6E"></path>
        <path d="M25.0563618,88.3858943 C24.0724187,88.3865041 23.273435,89.184878 23.273435,90.1688211 L23.2740447,92.4781707 C23.273435,93.4613008 24.0707927,94.2604878 25.054939,94.2604878 L25.0569715,94.2604878 L25.0630691,94.2604878 C25.553313,94.2604878 25.9978252,94.0608943 26.3193699,93.7399593 C26.6421341,93.4171951 26.8409146,92.9708537 26.8396951,92.477561 L26.8392886,90.1688211 C26.8403049,89.1842683 26.0429472,88.3875203 25.0563618,88.3858943" fill="#6DAC6E"></path>
        <path d="M19.8005488,113.055244 C19.4527846,112.707073 18.9972967,112.532886 18.5411992,112.532886 C18.0853049,112.532886 17.6288008,112.707073 17.2790041,113.055244 C16.5836789,113.751789 16.5836789,114.88126 17.2790041,115.576789 L18.9123374,117.208902 C19.2598984,117.55748 19.7164024,117.73187 20.1729065,117.73187 C20.6294106,117.73187 21.0857114,117.557683 21.4332724,117.208902 C21.7832724,116.861138 21.9582724,116.403821 21.9582724,115.94813 C21.9582724,115.492439 21.7832724,115.036341 21.4338821,114.687561 L19.8005488,113.055244 Z" fill="#6DAC6E"></path>
        <path d="M34.995122,73.9363211 C34.5388211,73.9363211 34.0823171,74.1101016 33.7347561,74.4578659 L32.1018293,76.0911992 C31.4052846,76.7867276 31.4052846,77.9166057 32.102439,78.6121341 C32.4495935,78.9615244 32.9063008,79.1365244 33.3632114,79.1365244 C33.8193089,79.1365244 34.2756098,78.9621341 34.6237805,78.6121341 L36.2554878,76.9794106 C36.953252,76.2838821 36.953252,75.1566463 36.2554878,74.4578659 C35.9079268,74.1101016 35.4514228,73.9363211 34.995122,73.9363211" fill="#6DAC6E"></path>
        <path d="M19.7752439,124.15439 C20.6447561,124.15439 21.4364228,124.137114 22.0837805,124.137114 L22.0902846,124.137114 C22.7362195,124.137114 23.5256504,124.153984 24.3921138,124.153984 C27.7234146,124.153984 32.1925203,123.902358 34.0276829,121.461707 C34.2455691,120.522683 33.6811382,119.741585 32.7370325,119.741585 C32.6612195,119.741585 32.5831707,119.746463 32.5028862,119.756829 C29.1413008,120.174309 25.6085772,120.383455 22.0764634,120.383455 C18.5488211,120.383455 15.0217886,120.174919 11.6646748,119.756829 C11.5845935,119.746667 11.5065447,119.741585 11.4311382,119.741585 C10.4862195,119.741585 9.92138211,120.52187 10.139878,121.461707 C11.9738211,123.901138 16.4437398,124.15439 19.7752439,124.15439" fill="#BBB6B4"></path>
        <path d="M42.0770122,98.8079878 C35.4851423,98.2752642 28.7843293,98.0088008 22.085752,98.0088008 C18.4018089,98.0088008 14.7190854,98.0923374 11.053435,98.253313 C11.1798577,98.597622 11.2524187,98.9677439 11.2524187,99.3555488 C11.2495732,101.121809 9.81176829,102.558801 8.04672764,102.558801 L5.73534553,102.559411 C4.87863821,102.559411 4.07396341,102.226484 3.46969512,101.622215 C2.86197154,101.014492 2.52904472,100.207175 2.53189024,99.3553455 C2.53168699,99.1567683 2.55119919,98.9616463 2.58615854,98.7703862 C2.42071138,98.7833943 2.25465447,98.7945732 2.08941057,98.8079878 C0.699573171,98.9232317 0.0507926829,100.107378 0.0507926829,101.4275 C0.0507926829,102.748435 0.699166667,103.931768 2.08941057,104.046809 C8.69123984,104.577703 15.3997764,104.843963 22.106687,104.843963 C28.7989634,104.843963 35.4896138,104.578923 42.0770122,104.046809 C43.4666463,103.931768 44.1162398,102.748028 44.1162398,101.4275 C44.1156301,100.107378 43.4666463,98.9236382 42.0770122,98.8079878" id="Fill-25" fill="#BBB6B4"></path>
        <path d="M38.7062195,87.5882927 C38.4261382,86.068374 37.2029675,85.0695935 35.9350813,84.8592276 C31.3923984,84.1765041 26.7360976,83.8350407 22.0812195,83.8350407 C17.4263415,83.8350407 12.7728862,84.1763008 8.23020325,84.8592276 C6.96333333,85.0695935 5.73853659,86.0689837 5.4596748,87.5889024 C5.28914634,88.7878862 5.99138211,89.6734553 7.17166667,89.6734553 C7.28731707,89.6734553 7.40743902,89.6649187 7.53203252,89.647439 C12.3255285,89.0145122 17.2060163,88.6978455 22.0850813,88.6978455 C22.1269512,88.6978455 22.1690244,88.6988618 22.2108943,88.6988618 C22.7448374,87.67 23.8184146,86.9639024 25.0556098,86.9630894 L25.0572358,86.9630894 L25.0586585,86.9630894 C26.3576423,86.9653252 27.475122,87.7435772 27.977561,88.8547561 C30.8814228,89.0069919 33.7728862,89.2693902 36.6342683,89.647439 C36.7588618,89.6649187 36.879187,89.6734553 36.9948374,89.6734553 C38.1755285,89.6734553 38.8771545,88.7878862 38.7062195,87.5882927" fill="#BBB6B4"></path>
        <path d="M40.5885772,105.819858 C40.5011789,105.819858 40.4113415,105.824126 40.319065,105.833069 C34.3135772,106.399533 28.2032114,106.682459 22.094878,106.682459 C15.9776016,106.682459 9.86235772,106.399126 3.84792683,105.833069 C3.75565041,105.824126 3.66560976,105.819858 3.57821138,105.819858 C2.27109756,105.819858 1.50869919,106.787947 1.52069106,108.103191 C1.54670732,109.739776 2.72658537,110.89811 4.04487805,111.143841 C7.76073171,111.817215 11.6015854,112.272907 15.4877642,112.516402 C15.4877642,112.516402 15.6328862,112.527581 15.8694715,112.544045 C15.9857317,112.368435 16.1206911,112.201768 16.2749593,112.047297 C16.8816667,111.442825 17.6865447,111.110102 18.5412195,111.110102 C19.3975203,111.110102 20.2021951,111.443841 20.8062602,112.048923 L21.4727236,112.71498 C21.6845122,112.716199 21.8965041,112.719451 22.1082927,112.719451 C28.215,112.719451 34.3200813,112.197297 40.1208943,111.143435 C41.4402033,110.89811 42.6180488,109.739776 42.6456911,108.103191 C42.6580894,106.78815 41.8950813,105.819858 40.5885772,105.819858" fill="#BBB6B4"></path>
        <path d="M36.9954268,113.18252 C36.8797764,113.18252 36.7594512,113.191057 36.6348577,113.208537 C32.085061,113.809959 27.4580285,114.120325 22.8271341,114.149797 C23.186687,114.676829 23.3809959,115.297561 23.3809959,115.948171 C23.3809959,116.806707 23.0454268,117.612805 22.4409553,118.213415 C22.0651423,118.590447 21.6118902,118.861789 21.1169715,119.013618 C21.4397358,119.01687 21.7622967,119.022561 22.0848577,119.022561 C26.739939,119.022561 31.3935976,118.681098 35.9356707,117.997764 C36.7297764,117.864634 37.507622,117.422764 38.0462398,116.736992 C38.1263211,116.167683 38.3543699,115.635163 38.7147358,115.187805 C38.8433943,114.029065 38.1490854,113.18252 36.9954268,113.18252" fill="#BBB6B4"></path>
        <path d="M33.2018902,80.5513415 C32.404126,80.5119106 31.6602236,80.1856911 31.097622,79.6194309 C31.0309553,79.5529675 30.9689634,79.4830488 30.9092073,79.4121138 C28.9201829,78.7958537 26.506565,78.6984959 24.4955894,78.6984959 C23.5825813,78.6982927 22.7531098,78.7182114 22.0838008,78.7184146 L22.0777033,78.7184146 C21.4092073,78.7184146 20.582378,78.6986992 19.6730285,78.6986992 C16.3512805,78.6986992 11.9321748,78.9602846 10.1398984,81.3942276 C9.92099593,82.334065 10.4862398,83.1137398 11.4309553,83.1137398 C11.506565,83.1137398 11.5844106,83.1088618 11.6646951,83.0984959 C15.025061,82.6810163 18.5569715,82.4720732 22.0886789,82.4720732 C25.6167276,82.4720732 29.1447764,82.6806098 32.501687,83.0984959 C32.5819715,83.1088618 32.6600203,83.1137398 32.7356301,83.1137398 C33.680752,83.1137398 34.2453862,82.334065 34.0264837,81.3942276 C33.7937602,81.0777642 33.5155081,80.7986992 33.2018902,80.5513415" fill="#BBB6B4"></path>
        <path d="M41.4044106,94.5290447 C40.5475,94.5290447 39.7428252,94.1961179 39.1385569,93.5918496 C38.545874,92.9991667 38.2170122,92.2162398 38.2035976,91.387378 C34.9558333,90.8680691 31.6253455,90.5085163 28.2619309,90.3117683 L28.2625407,92.4743699 C28.2643699,93.3329065 27.9316463,94.1398171 27.3245325,94.7469309 C26.7196545,95.3505894 25.9166057,95.6831098 25.0548171,95.6831098 C24.1987195,95.6831098 23.3938415,95.3493699 22.7885569,94.7434756 C22.1836789,94.1377846 21.850752,93.3329065 21.8513618,92.478435 L21.850752,90.1686789 C21.850752,90.1560772 21.8525813,90.1438821 21.8525813,90.1314837 C15.8143699,90.1444919 9.78083333,90.6707114 4.04607724,91.7119715 C2.72615854,91.9572967 1.54892276,93.1162398 1.52067073,94.753435 C1.50949187,96.0507927 2.25359756,97.0089228 3.52859756,97.034126 C4.12697154,96.4638008 4.90644309,96.1481504 5.73713415,96.1481504 L8.04648374,96.1475407 L8.04668699,96.1475407 L8.04689024,96.1475407 C8.62473577,96.1475407 9.16599593,96.303435 9.63469512,96.5723374 C13.750752,96.3119715 17.8977033,96.1788415 22.0454675,96.1788415 C24.7903862,96.1788415 27.5351016,96.235752 30.2710772,96.3491667 C30.2710772,96.3491667 38.4438415,96.8473374 40.3190447,97.0235569 C40.4109146,97.0322967 40.5005488,97.036565 40.5875407,97.036565 C41.8948577,97.036565 42.6580691,96.0676626 42.6456707,94.7528252 C42.6444512,94.6768089 42.6381504,94.6028252 42.6318496,94.5288415 L41.4044106,94.5290447 Z" fill="#BBB6B4"></path>
        <path d="M17.9067276,118.215325 L16.2729878,116.582805 C15.5412805,115.850894 15.2414837,114.850285 15.3677033,113.894593 C12.4831504,113.692154 9.0179065,113.405366 7.53193089,113.209634 C7.40713415,113.191951 7.28660569,113.183415 7.17054878,113.183415 C5.99087398,113.183415 5.28884146,114.068374 5.46018293,115.267764 C5.73924797,116.788089 6.96384146,117.785854 8.23132114,117.997846 C11.8069309,118.535447 15.4534756,118.858211 19.1144512,118.972846 C18.6648577,118.815732 18.2518496,118.561667 17.9067276,118.215325" fill="#BBB6B4"></path>
        <path d="M95.8848577,98.6516057 C94.3612805,100.53372 93.7767276,102.683923 93.1663618,102.683923 C92.5559959,102.683923 92.9868902,100.115427 93.6740854,98.6516057 C93.9332317,98.0989634 94.1690041,97.5463211 94.7795732,97.5463211 C95.389939,97.5463211 96.2690041,98.1772154 95.8848577,98.6516057 M112.410671,75.6920528 L112.424085,74.753435 L111.544411,74.4270122 C110.197866,73.9264024 108.790549,73.6005894 107.359858,73.456687 C106.805386,73.4009959 106.249695,73.3735569 105.695833,73.3735569 C102.335467,73.3733537 99.0283537,74.3888008 96.2332317,76.3024187 C91.9210366,79.256687 89.2448171,84.0739634 88.9773374,89.2822967 C88.6204268,89.6511992 88.2789634,90.0247764 87.9464431,90.3995732 C88.4025407,85.7062805 87.3938008,80.9215244 84.942378,76.7694919 C81.2450203,70.503435 74.6521341,66.3658333 67.3639228,65.7721341 L66.4283537,65.6946951 L66.0435976,66.5511992 C63.0413618,73.2270122 63.465752,80.9678659 67.1787602,87.2560772 C70.409248,92.7298577 75.8521341,96.5711179 82.0336382,97.854248 C82.0246951,98.9825 81.8078252,100.137581 81.340752,101.38372 C81.0277439,102.222337 79.5222561,106.660346 78.9433943,112.393882 C78.6094512,115.702419 76.5094512,125.220711 75.835874,128.226402 L82.2208333,128.226402 C82.0864837,125.299776 81.5015244,111.313394 82.3844512,107.254248 C82.4023374,107.172337 82.7996951,105.534329 82.8742886,105.265427 C82.8816057,105.238598 86.0763211,97.4747764 86.0763211,97.4747764 C86.0807927,97.4648171 88.8287602,93.2518089 90.564939,91.4156301 C91.6797764,91.7707114 92.8295732,92.0158333 93.9950203,92.1329065 L93.9956301,92.1329065 C94.5503049,92.1888008 95.1061992,92.2162398 95.660061,92.2162398 C96.7944106,92.2162398 97.9218496,92.0979472 99.0263211,91.8713211 C98.9970528,92.436565 99.0431911,93.3018089 99.5033537,94.358313 C97.889126,94.3475407 96.6480691,94.2879878 95.2968496,94.9201016 C92.3336382,96.306687 90.3381098,99.0201016 90.3381098,102.683923 C90.3381098,106.449167 92.4448171,109.722947 95.5440041,111.389614 C96.9354675,112.137988 98.5265244,111.56685 100.216159,111.56685 C101.937703,111.56685 103.556606,112.122134 104.965955,111.347744 C107.567175,109.918476 109.454167,107.351606 109.959248,104.317053 C108.849695,104.093679 107.786077,103.535346 106.835671,102.669289 C105.198679,101.177622 104.402337,99.5105488 104.468598,97.7142073 C104.501728,96.8152236 104.753354,95.9038415 105.227947,94.9644106 C105.12815,94.9162398 105.027134,94.8694919 104.924898,94.8245732 C103.748882,94.3070935 102.175915,94.3312805 100.691362,94.3520122 C100.238313,93.6070935 100.068191,92.5075 100.014329,91.6396138 C101.825305,91.1522154 103.555589,90.3613618 105.123882,89.2875813 C109.608232,86.2190854 112.331809,81.1359553 112.410671,75.6920528" fill="#6DAC6E"></path>
        <path d="M128.495102,128.217093 C133.421728,128.222988 138.348963,128.226443 143.275793,128.226443 C148.614817,128.226443 153.953435,128.222378 159.292256,128.213435 C161.095102,128.210386 162.622744,127.802866 163.81624,127.053679 C163.113394,125.740874 162.781687,124.06689 162.777419,121.803272 L162.45689,114.369736 C161.595915,114.054289 160.615833,113.875224 159.522541,113.847988 C158.167053,113.814451 156.810549,113.803882 155.454045,113.803882 C153.244492,113.803882 151.034736,113.831728 148.825183,113.831728 C148.096118,113.831931 147.213801,113.834167 146.272541,113.834167 C142.703638,113.834167 138.286972,113.801646 138.166443,113.492703 C142.316037,109.816687 145.94002,104.966687 150.405467,101.72563 C155.18128,98.2591667 156.67498,93.8754268 155.575793,88.4874187 C153.357703,77.615061 149.715224,67.3829472 142.137378,58.8579472 C138.938598,55.2595732 135.565224,52.7414837 131.094695,52.7410772 C130.004451,52.7410772 128.84998,52.8906707 127.615833,53.2107927 C124.579451,53.9985976 122.439004,55.5807114 121.851809,58.6091667 C121.522134,60.3091667 121.393476,62.2136382 121.657093,63.9725813 C121.760955,65.9085569 121.739207,67.8874187 121.409126,69.7788821 C119.758923,79.2351829 114.468069,86.7904675 108.412175,93.889248 C105.968476,96.7538821 105.82498,98.9985976 108.204654,101.16689 C109.096321,101.979492 110.063801,102.395346 111.064817,102.395346 C112.414004,102.395346 113.824167,101.640467 115.193679,100.084167 C117.538801,97.4193293 119.859736,94.6929065 121.843272,91.7581504 C125.51624,86.3235976 128.202419,80.5195325 129.608313,74.2861992 C132.606687,79.8697358 133.894492,87.9240041 134.314817,89.9386382 C134.913191,92.8071341 135.939411,95.1235976 132.900183,97.3390447 C130.490833,99.0955488 128.306484,101.369939 126.583923,103.810793 C124.004451,107.466077 121.448354,111.271972 119.728435,115.369126 C116.973354,121.932337 121.49063,128.208557 128.495102,128.217093" fill="#BBB6B4"></path>
        <path d="M122.205833,35.4172967 C126.793435,40.3496138 126.651768,47.9388415 121.889573,52.368313 C117.127175,56.7977846 109.547703,56.390061 104.960102,51.4577439 C100.3725,46.5254268 100.513963,38.9361992 105.276362,34.5067276 C110.038557,30.0772561 117.618232,30.4849797 122.205833,35.4172967" fill="#BBB6B4"></path>
        <path d="M186.25624,21.736565 C186.887541,19.3867683 187.170467,16.260752 185.911321,12.9396138 C185.613354,12.1564837 185.312947,11.1178659 185.072297,10.2119715 C184.614167,10.5918496 184.126362,10.9556707 183.603598,11.284126 C180.470874,13.2524187 174.302378,14.9509959 172.486321,15.4245732 L169.842012,16.1144106 L170.662541,13.9054675 C169.789776,14.8144106 168.952581,16.0999797 168.56376,17.8680691 C168.267419,19.2257927 168.549939,20.6032317 168.838963,21.5198984 L169.216809,22.7170528 C171.23124,24.9111585 174.118435,26.2881911 177.331443,26.2881911 C181.001972,26.2881911 184.251972,24.4944919 186.25624,21.736565" fill="#6DAC6E"></path>
        <path d="M192.031992,10.9138211 C191.446016,8.40995935 190.098252,6.45426829 189.194187,5.3597561 C188.729756,6.13191057 187.728333,7.65203252 186.26126,9.12825203 C186.51126,10.120122 186.884634,11.4969512 187.241138,12.4333333 C189.536057,18.4873984 187.152927,23.9658537 186.205366,25.7703252 C188.274268,24.8306911 194.423455,21.1156504 192.031992,10.9138211" fill="#BBB6B4"></path>
        <path d="M188.183191,4.2677439 C187.588069,3.57343496 184.337256,0.132378049 178.400264,0.132378049 C176.683801,0.132378049 174.868354,0.421605691 173.008801,0.987865854 C167.443557,2.68644309 164.11002,6.81063008 164.088069,12.0218089 C164.071606,16.8238415 166.206565,20.3018902 167.482175,21.9480285 C167.135224,20.848435 166.812866,19.2175407 167.173841,17.5644919 C168.32811,12.3136789 172.909614,10.674248 172.959207,10.6577846 L173.449654,10.4870528 L172.127297,14.0480285 C173.832581,13.6031098 179.893557,11.9348171 182.846606,10.0793293 C185.888272,8.16876016 187.789289,4.97729675 188.183191,4.2677439" fill="#BBB6B4"></path>
        <path d="M166.357663,22.8195122 C165.05624,21.1402439 162.929817,17.7050813 162.687947,12.9644309 C162.516809,13.9329268 162.415996,15.0345528 162.415996,16.2918699 C162.415996,22.4335366 166.385305,24.9571138 168.757866,25.9164634 L166.357663,22.8195122 Z" fill="#BBB6B4"></path>
        <path d="M177.496951,46.2070325 L171.086179,30.9415854 L183.905081,30.9415854 L177.496951,46.2070325 Z M197.46748,79.4854878 C200.054675,79.3367073 200.054675,77.2373171 199.903252,74.655813 L199.49248,34.1834553 C199.49248,34.1682114 199.489837,34.1529675 199.487195,34.1379268 C199.487195,34.1145528 199.49248,34.1269512 199.49248,34.1019512 C199.49248,31.1706504 197.117886,28.8304065 194.189228,28.8304065 L186.243902,28.8304065 L168.752236,28.8304065 L161.068496,28.8304065 C158.31626,28.8304065 156.082114,30.8954472 155.814837,33.5704472 C155.773577,33.7743089 155.72378,33.9588618 155.713008,34.1722764 L154.971951,74.6306098 C154.801016,77.2121138 154.781911,79.3100813 157.36626,79.4806098 C157.466667,79.4875203 157.563618,79.4907724 157.657114,79.4907724 C159.965447,79.4907724 160.215854,77.4661789 160.382927,74.9883333 L163.969919,44.134065 C164.410569,48.400122 164.809959,53.2980894 164.809959,57.0989024 C164.809959,65.0206504 163.093699,68.5562195 162.878862,73.5458537 L162.879268,73.5458537 L162.879268,74.0495122 C162.879268,74.2369106 162.857114,74.4021545 162.857114,74.5923984 C162.857114,74.8401626 162.879268,75.0578455 162.879268,75.2838618 L162.879268,75.7438211 C162.879268,75.8182114 162.847358,75.8926016 162.847358,75.9667886 L162.864431,76.4850813 L161.707927,102.332846 L163.972358,102.332846 L164.809756,121.758252 C164.809756,125.21313 165.636382,128.014756 169.088415,128.014756 C172.540447,128.014756 173.367073,125.211707 173.367073,121.757033 L175.039228,102.332846 L179.959756,102.332846 L181.629268,121.758252 C181.629268,125.21313 182.455691,128.014756 185.907724,128.014756 C189.359553,128.014756 190.186179,125.211707 190.186179,121.757033 L191.023577,102.332846 L193.456301,102.332846 L192.15061,76.1795935 L192.15874,75.9645528 C192.15874,75.9261382 192.153252,75.8942276 192.147764,75.8556098 L192.144919,75.1208537 C192.147764,74.9415854 192.115244,74.7795935 192.115244,74.5923984 C192.115244,74.3966667 192.049593,74.2070325 192.049593,74.0115041 L192.049593,73.5460569 L192.120122,73.5460569 C191.921748,67.9806098 190.185976,63.0149593 190.185976,57.0984959 C190.185976,54.0444309 190.654268,48.6547967 191.13374,43.9178049 L194.486585,74.9702439 C194.635366,77.4617073 194.866463,79.4936179 197.205894,79.4936179 C197.290244,79.4936179 197.377439,79.4909756 197.46748,79.4854878 L197.46748,79.4854878 Z" fill="#6DAC6E"></path>
    </g>
</svg>
