<svg width="26px" height="27px" viewBox="0 0 26 27" version="1.1" xmlns="http://www.w3.org/2000/svg" xmlns:xlink="http://www.w3.org/1999/xlink">
    <g fill="#F8F9F7" fill-rule="evenodd">
        <path d="M24.4434131,26.0562012 C25.2318456,26.0562012 25.8712046,25.4122752 25.8712046,24.6180089 L25.8712046,1.43809112 C25.8712046,0.643723718 25.2319459,0 24.4434131,0 L1.42789189,0 C0.639158301,0 0,0.643723718 0,1.43809112 L0,24.6180089 C0,25.4121741 0.639057915,26.0562012 1.42789189,26.0562012 L24.4434131,26.0562012 Z M17.8507568,26.0562012 L17.8507568,15.9658041 L21.2135907,15.9658041 L21.7171274,12.0333973 L17.8507568,12.0333973 L17.8507568,9.52280403 C17.8507568,8.38428152 18.1646641,7.608416 19.7856988,7.608416 L21.853251,7.60750607 L21.853251,4.0903299 C21.4956757,4.042407 20.2683552,3.93533878 18.8404633,3.93533878 C15.8594981,3.93533878 13.8186486,5.76793436 13.8186486,9.13335472 L13.8186486,12.0333973 L10.4471815,12.0333973 L10.4471815,15.9658041 L13.8186486,15.9658041 L13.8186486,26.0562012 L17.8507568,26.0562012 Z"></path>
    </g>
</svg>
