<svg width="302px" height="90px" viewBox="30 20 302 90" version="1.1" xmlns="http://www.w3.org/2000/svg" xmlns:xlink="http://www.w3.org/1999/xlink">
    <g id="logo-alt-white" fill="F8F9F7" fill-rule="evenodd" transform="translate(30.000000, 20.000000)">
        <path d="M105.244282,27.3237527 C108.683918,29.1282033 110.890841,38.8239725 112.078576,42.0971044 C114.330478,48.3288626 115.17074,51.4897418 112.23526,57.4529835 C109.434223,63.1358407 106.286206,70.4550165 101.412687,74.7928187 C95.6203175,79.9490275 85.6043961,82.4932582 78.2550704,84.6117198 C71.3985336,86.5956758 60.9792864,86.6293022 61.3376334,77.4270495 C61.7409591,67.3391374 73.3365728,62.6650714 82.2324746,61.409522 C85.7502062,60.9051264 87.9126448,60.2889725 90.8926088,58.2263901 C92.5281538,57.094467 97.5361146,51.8823791 99.1049329,55.2672692 C100.751846,58.8539176 97.1777676,63.5279835 94.6233715,65.7473242 C93.4356367,66.767489 84.6074501,73.1565 83.6327463,72.2372143 C86.377437,74.8491923 95.0825499,68.0452912 96.7858101,65.9490824 C99.7435319,62.3174341 101.860992,57.4079835 104.079283,53.3169396 C106.308448,49.2031484 104.58344,45.3252363 103.451558,40.9646868 C103.216285,39.9450165 100.886288,25.0257857 105.244282,27.3237527 C106.936173,28.1866648 103.575126,26.4380934 105.244282,27.3237527" id="Fill-1" fill="#F9F9F8"></path>
        <path d="M9.25276596,27.3237527 C5.8131293,29.1282033 3.60620622,38.8239725 2.41847136,42.0971044 C0.166569558,48.3288626 -0.673692308,51.4897418 2.26178723,57.4529835 C5.06282488,63.1358407 8.21084124,70.4550165 13.0843601,74.7928187 C18.87673,79.9490275 28.8926514,82.4932582 36.2419771,84.6117198 C43.0985139,86.5956758 53.517761,86.6293022 53.1594141,77.4270495 C52.7560884,67.3391374 41.1604746,62.6650714 32.2645728,61.409522 C28.7468412,60.9051264 26.5844026,60.2889725 23.6044386,58.2263901 C21.9688936,57.094467 16.9609329,51.8823791 15.3921146,55.2672692 C13.7452013,58.8539176 17.3192799,63.5279835 19.8736759,65.7473242 C21.0614108,66.767489 29.8895974,73.1565 30.8643011,72.2372143 C28.1196105,74.8491923 19.4144975,68.0452912 17.7112373,65.9490824 C14.7535155,62.3174341 12.6360556,57.4079835 10.4177643,53.3169396 C8.18859902,49.2031484 9.9136072,45.3252363 11.0454894,40.9646868 C11.2916367,39.9450165 13.6107594,25.0257857 9.25276596,27.3237527 C7.58361047,28.1866648 10.9332897,26.4380934 9.25276596,27.3237527" id="Fill-3" fill="#F9F9F8"></path>
        <path d="M11.7959421,21.1589011 C10.7876278,19.1971978 23.9629339,9.70368132 25.5090157,8.69489011 C31.3236278,4.85010989 37.2726818,3.50505495 44.2636606,1.77873626 C60.0156049,-2.09917582 78.6585444,1.26346154 92.2371761,11.0487363 C98.9256606,15.8459341 105.300282,20.3968681 97.0207375,26.7967582 C89.8844429,32.3006044 76.7200108,29.0497253 70.8045673,22.9747253 C68.4968128,20.5986264 49.8879781,17.1014835 50.5374511,15.3974176 C53.6523512,7.33846154 69.3929273,10.5552198 76.0369273,14.3213736 C76.518348,14.6017582 76.7872318,13.6602198 77.146073,13.9514835 C66.7940468,5.99340659 49.0813267,8.05598901 37.0823872,11.2504945 C33.4410877,12.2256593 14.843127,27.1666484 11.7959421,21.1589011 C10.9556802,19.488956 12.6362039,22.817967 11.7959421,21.1589011" id="Fill-5" fill="#F9F9F8"></path>
        <path d="M132.916922,69.6929835 L132.916922,8.19034615 C132.916922,5.87012637 134.093289,4.71545604 136.446022,4.71545604 L139.98649,4.71545604 C142.294245,4.71545604 143.470611,5.87012637 143.470611,8.19034615 L143.470611,43.2290275 L156.018686,25.0257857 C156.657285,24.1178736 157.329495,23.4680934 158.012578,23.0645769 C158.707524,22.6610604 159.659492,22.4593022 160.869469,22.4593022 L165.821577,22.4593022 C166.997943,22.4593022 167.770984,22.9073242 168.107089,23.8043571 C168.454562,24.7008956 168.297384,25.5415549 167.591564,26.3263352 L154.427626,42.9377637 L168.107089,69.4017198 C168.611246,70.320511 168.678467,71.1611703 168.275141,71.9682033 C167.860447,72.7752363 167.087407,73.1787527 165.956019,73.1787527 L161.429973,73.1787527 C160.186385,73.1787527 159.233924,72.9769945 158.595325,72.5962253 C157.945357,72.1927088 157.396716,71.5424341 156.948411,70.6122692 L147.705531,51.6019945 L143.470611,56.9822143 L143.470611,69.6929835 C143.470611,72.0132033 142.316487,73.1787527 139.98649,73.1787527 L136.446022,73.1787527 C134.093289,73.1565 132.916922,72.0132033 132.916922,69.6929835" id="Fill-7" fill="#F9F9F8"></path>
        <path d="M181.181564,22.3918516 L177.641096,22.3918516 C175.288362,22.3918516 174.044775,23.5801484 174.044775,25.8553681 L174.044775,69.670533 C174.044775,71.9907527 175.288362,73.0667967 177.641096,73.0667967 L181.181564,73.0667967 C183.489318,73.0667967 184.688421,71.9907527 184.688421,69.670533 L184.688421,25.8553681 C184.688421,23.5801484 183.489318,22.3918516 181.181564,22.3918516" id="Fill-9" fill="#F9F9F8"></path>
        <path d="M199.611274,22.3918516 L196.082174,22.3918516 C193.729441,22.3918516 192.620296,23.5801484 192.620296,25.8553681 L192.620296,76.3508077 C192.620296,78.8282802 191.556129,80.0497088 189.494521,80.0497088 C188.788701,80.0497088 187.858976,79.9152033 186.704852,79.6798187 C185.730148,79.4558077 184.934865,79.6798187 184.397098,80.3187198 C183.847962,80.9689945 183.556836,81.9327857 183.556836,83.132456 L183.556836,85.9006978 C183.556836,86.999489 183.802983,87.806522 184.284898,88.2772912 C184.755445,88.7589396 185.573464,89.1179505 186.68261,89.3642143 C187.926197,89.6109725 189.28149,89.745478 190.783088,89.745478 C194.491114,89.745478 197.460204,88.6916868 199.700737,86.6182253 C201.941765,84.5447637 203.028174,81.1930055 203.028174,76.5753132 L203.028174,25.8553681 C203.028174,23.5801484 201.919029,22.3918516 199.611274,22.3918516" id="Fill-11" fill="#F9F9F8"></path>
        <path d="M221.581354,52.8349451 C220.382745,53.8996154 219.766389,55.5809341 219.766389,57.8339011 C219.766389,60.0868681 220.382745,61.7681868 221.581354,62.8556044 C222.779963,63.9539011 224.393266,64.5146703 226.354042,64.5146703 C230.712035,64.5146703 232.885842,61.8581868 232.885842,56.5224725 L232.885842,51.1986264 L226.354042,51.1986264 C224.393266,51.1986264 222.8027,51.7366484 221.581354,52.8349451 M209.234942,58.9099451 L209.234942,58.7309341 C209.234942,53.8551099 210.736539,50.1112088 213.694261,47.4324725 C216.662857,44.7532418 220.897776,43.4081868 226.354042,43.4081868 L232.885842,43.4081868 L232.885842,39.0817582 C232.885842,33.7351648 230.712035,31.0786813 226.354042,31.0786813 C224.572686,31.0786813 223.206025,31.5717033 222.242195,32.535989 C221.267492,33.522033 220.786071,34.7217033 220.786071,36.2012637 C220.786071,38.1624725 219.766389,39.1712637 217.727518,39.1712637 L213.727871,39.1712637 C211.408749,39.1712637 210.232382,38.0057143 210.232382,35.6854945 C210.232382,31.5044505 211.711243,28.0859341 214.646228,25.3844505 C217.593076,22.6834615 221.491891,21.3492857 226.354042,21.3492857 C231.451465,21.3492857 235.551943,22.817967 238.700454,25.7434615 C241.84847,28.668956 243.416794,32.8945055 243.416794,38.4092308 L243.416794,57.1613736 C243.416794,62.6760989 241.84847,66.9021429 238.700454,69.8276374 C235.551943,72.7531319 231.429223,74.2213187 226.354042,74.2213187 C221.31247,74.2213187 217.18975,72.8648901 214.018997,70.1189011 C210.826002,67.3951648 209.234942,63.6403846 209.234942,58.9099451" id="Fill-13" fill="#F9F9F8"></path>
        <path d="M249.870154,69.6929835 L249.870154,38.4318297 C249.870154,32.9171044 251.427604,28.6910604 254.57562,25.7655659 C257.723637,22.8400714 261.846851,21.3718846 266.922033,21.3718846 C272.019457,21.3718846 276.142177,22.8400714 279.290687,25.7883132 C282.460946,28.7360604 284.040638,32.9616099 284.040638,38.4318297 L284.040638,69.6929835 C284.040638,72.0132033 282.864272,73.1787527 280.511538,73.1787527 L276.971565,73.1787527 C274.663316,73.1787527 273.486949,72.0132033 273.486949,69.6929835 L273.486949,39.0816099 C273.486949,33.7350165 271.291394,31.078533 266.899296,31.078533 C262.552671,31.078533 260.378864,33.7350165 260.378864,39.0816099 L260.378864,69.6929835 C260.378864,72.0132033 259.202498,73.1787527 256.83889,73.1787527 L253.354275,73.1787527 C251.04652,73.1565 249.870154,72.0132033 249.870154,69.6929835" id="Fill-15" fill="#F9F9F8"></path>
        <path d="M298.650173,22.3918516 L295.109704,22.3918516 C292.756971,22.3918516 291.580605,23.5801484 291.580605,25.8553681 L291.580605,69.670533 C291.580605,71.9907527 292.756971,73.0667967 295.109704,73.0667967 L298.650173,73.0667967 C300.957927,73.0667967 301.999852,71.9907527 301.999852,69.670533 L301.999852,25.8553681 C301.999852,23.5801484 300.957927,22.3918516 298.650173,22.3918516" id="Fill-17" fill="#F9F9F8"></path>
    </g>
</svg>
