<svg width="28px" height="25px" viewBox="18 8 28 25" version="1.1" xmlns="http://www.w3.org/2000/svg" xmlns:xlink="http://www.w3.org/1999/xlink">
    <g id="newsletter-icon" fill="F8F9F7" fill-rule="evenodd" transform="translate(18.000000, 8.057143)">
        <path d="M26.2655488,0.148954663 L0.730198045,13.1785397 C-0.30598116,13.7075324 -0.230207703,14.3646356 0.899090691,14.6398589 L8.77679145,16.5572273 L13.1004432,23.3639466 C13.2821169,23.6495903 13.5596486,23.8160115 13.8624381,23.8193829 L13.873089,23.8193829 C14.1713139,23.8193829 14.4497585,23.6600108 14.6356926,23.3823357 L17.7454474,18.7393986 L23.3596824,20.1057075 C23.4226748,20.1210317 23.4874931,20.1283873 23.5517027,20.1283873 C23.7084229,20.1283873 23.8630129,20.0830276 23.9950839,19.99476 C24.1794964,19.8709402 24.3070028,19.6720316 24.3438244,19.4495237 L27.3665463,0.961752151 C27.5007475,0.136695274 27.0053291,-0.228634518 26.2655488,0.148954663 L26.2655488,0.148954663 Z M13.430925,16.9106042 C13.4294035,16.9127496 13.4284905,16.9152015 13.426969,16.9170404 C13.4230129,16.9228636 13.4193612,16.9277674 13.4154051,16.9342035 C13.4062758,16.9473824 13.3989723,16.9611742 13.3907559,16.975579 C13.3843654,16.9869189 13.3767576,16.9970329 13.3715844,17.0080664 C13.3688456,17.0132766 13.3670197,17.0184868 13.3651938,17.0240036 C13.3588033,17.0384084 13.3542386,17.0534261 13.3490653,17.0681374 C13.3445007,17.0819292 13.3387188,17.095108 13.335067,17.1088998 C13.3347627,17.1116582 13.3335455,17.1134971 13.3329368,17.1156425 C13.3323282,17.1187073 13.3326325,17.1220787 13.3317196,17.1251435 C13.3286765,17.1383224 13.3274592,17.1527272 13.3253291,17.166519 C13.3231989,17.1821497 13.3204601,17.1974739 13.3195472,17.2121852 C13.3192428,17.2195408 13.3189385,17.2268965 13.3189385,17.2339456 C13.3189385,17.236704 13.3180256,17.2394623 13.3180256,17.2422207 L13.3329368,21.7444813 L9.80231977,16.1869938 L23.0435032,4.53475106 L13.430925,16.9106042 L13.430925,16.9106042 Z" id="Shape" fill="#F8F9F7"></path>
    </g>
</svg>
