<svg width="201px" height="127px" viewBox="69 0 201 127" version="1.1" xmlns="http://www.w3.org/2000/svg" xmlns:xlink="http://www.w3.org/1999/xlink">
    <g id="partner" stroke="none" stroke-width="1" fill="none" fill-rule="evenodd" transform="translate(70.000000, 0.000000)">
        <path d="M100.499489,45.5854028 C100.751552,45.6588802 101.003418,45.732554 101.346444,45.832554 C101.097721,45.1535756 100.997525,45.1172299 100.499489,45.5854028 L100.499489,45.5854028 Z M107.37002,42.4987623 C107.280039,42.4647741 107.190059,42.4307859 107.100275,42.3969941 C107.000472,42.6384479 106.893988,42.8777407 106.816582,43.1262672 C106.811277,43.1433595 107.024244,43.2282318 107.135639,43.2816699 C107.213831,43.0207662 107.291827,42.759666 107.37002,42.4987623 L107.37002,42.4987623 Z M79.5283694,32.557112 C79.3144204,32.3321611 79.1480157,32.157112 78.9649116,31.9647741 C78.751945,32.8111395 78.751945,32.8111395 79.0161886,33.0924754 C79.17611,32.9254813 79.3348527,32.759666 79.5283694,32.557112 L79.5283694,32.557112 Z M102.591631,13.3123183 C102.218939,13.1498428 101.955481,13.0351081 101.568841,12.8665422 C101.625226,13.2889391 101.665697,13.5905108 101.719332,13.9932613 C102.047819,13.7368762 102.270609,13.5630059 102.591631,13.3123183 L102.591631,13.3123183 Z M56.9969352,54.6374656 C56.4554813,54.2808841 56.435442,54.2950295 56.1782711,55.1824558 C56.322279,55.2859921 56.4631434,55.3873674 56.6676621,55.5343222 C56.7904519,55.1997446 56.8943811,54.9166405 56.9969352,54.6374656 L56.9969352,54.6374656 Z M128.771591,26.1881532 C128.780432,26.8551473 129.564126,27.4319646 130.174342,27.2400196 C129.70165,26.8854028 129.273556,26.5645776 128.771591,26.1881532 L128.771591,26.1881532 Z M102.189666,45.9360904 C102.363536,45.5105501 102.509312,45.2618271 102.552141,44.9966012 C102.56943,44.8891356 102.361965,44.7453242 102.256857,44.6180157 C102.190845,44.7402161 102.124833,44.8624165 102.046837,45.0070138 C101.962554,44.983831 101.812259,44.9427701 101.661768,44.9015128 C101.617367,44.9455206 101.573163,44.989725 101.528959,45.0337328 C101.712259,45.2840275 101.89556,45.5343222 102.189666,45.9360904 L102.189666,45.9360904 Z M124.860589,27.5767583 C124.455481,27.5449312 124.115403,27.5184086 123.775324,27.4916896 C123.889273,27.7759725 123.926798,28.2081925 124.132495,28.3140864 C124.576306,28.5421807 124.709509,28.1284283 124.860589,27.5767583 L124.860589,27.5767583 Z M100.536424,61.0879568 C100.935049,60.5808841 100.860982,60.0539686 100.707544,59.5089784 C99.9106876,59.9952259 99.8603929,60.3608448 100.536424,61.0879568 L100.536424,61.0879568 Z M64.8894695,29.3280354 C64.5030255,29.062613 64.5433006,28.4050491 63.9389784,28.670275 C63.6672692,28.7895285 63.6723772,29.5286248 63.9507662,29.8747937 C64.2322986,29.7107466 64.5218861,29.5419843 64.8894695,29.3280354 L64.8894695,29.3280354 Z M149.55391,84.6871709 C149.48888,84.6728291 149.423851,84.6582908 149.358625,84.6441454 C149.177682,85.3148723 148.996739,85.9857957 148.777485,86.797387 C149.615796,86.3048527 149.792024,85.7152652 149.55391,84.6871709 L149.55391,84.6871709 Z M50.0643222,78.2152652 C49.3254224,77.0097642 49.3169745,77.0022986 48.6647151,76.9453242 C48.8132417,77.3969941 48.9605894,77.8451277 49.0822004,78.2152652 L50.0643222,78.2152652 Z M106.104597,64.6537721 C105.347819,64.6777407 104.686523,64.6855992 104.027387,64.7292141 C103.861965,64.7400196 103.704204,64.8649705 103.542711,64.9374656 C103.66668,65.0641847 103.770413,65.2258743 103.918153,65.310943 C104.35666,65.5630059 104.808134,65.7942436 105.263929,66.0136935 C105.41167,66.0848134 105.58888,66.0946365 105.752731,66.1323576 C105.773752,65.9567191 105.78888,65.7802947 105.816974,65.6056385 C105.844086,65.4392338 105.872377,65.2714538 105.922475,65.110943 C105.976503,64.9378585 106.056267,64.7730255 106.104597,64.6537721 L106.104597,64.6537721 Z M101.001454,63.4254813 C101.022868,63.2290177 101.089666,62.9529862 101.073556,62.6816699 C101.051159,62.3046562 101.065501,61.8736149 100.887308,61.5690963 C100.544872,60.9836346 100.201847,61.7368762 99.8321022,61.6635953 C99.8236542,61.66222 99.808723,61.6934578 99.7452652,61.7789194 C100.311866,62.3398232 99.6275835,63.273222 100.283576,63.8696857 C100.534067,63.7148723 100.738978,63.5879568 101.001454,63.4254813 L101.001454,63.4254813 Z M100.25057,15.0854028 C100.652927,14.7861886 101.036424,14.5995481 101.262358,14.2958153 C101.394971,14.1176228 101.377682,13.6879568 101.248212,13.4873674 C101.048802,13.1783301 100.863733,13.473222 100.71167,13.651611 C100.686719,13.6806876 100.611081,13.6665422 100.495953,13.6795088 C100.541139,13.5011198 100.575521,13.3659528 100.613242,13.2170334 C100.260393,13.2588802 99.913831,13.2439489 99.6154028,13.357112 C99.4484086,13.4201768 99.3617682,13.6952259 99.2389784,13.8745972 C99.3837721,13.9645776 99.5283694,14.054558 99.5252259,14.0527898 C99.8154028,14.4657564 100.019332,14.7559332 100.25057,15.0854028 L100.25057,15.0854028 Z M132.400472,90.9258743 C132.459804,90.9362868 132.518939,90.9466994 132.578075,90.9573084 C133.28613,89.5643811 134.520707,88.4015128 134.468644,86.4891356 C133.81442,87.1327505 132.687898,86.9834381 132.722083,88.2580943 C132.745658,89.143556 132.516582,90.0360904 132.400472,90.9258743 L132.400472,90.9258743 Z M55.4572495,52.2920825 C55.4346562,52.2685069 55.4116699,52.2447348 55.3890766,52.2209627 C55.6947741,51.6952259 56.000668,51.1694892 56.3063654,50.6439489 C56.2509627,50.6131041 56.1955599,50.5824558 56.1399607,50.551611 C54.9419253,51.6048527 54.7165815,53.2237132 53.8097053,54.5121218 L55.9226719,54.5121218 C55.6739489,54.810943 55.5155992,55.0011198 55.3572495,55.1914931 C55.4081336,55.2307859 55.4592141,55.2698821 55.5102947,55.3093713 C55.9933988,54.7099607 56.4765029,54.1105501 57.0452652,53.4050491 C56.7902554,53.497387 56.6682515,53.5415914 56.4173674,53.6323576 C56.597721,53.2588802 56.7179568,53.0093713 56.846444,52.7431631 L55.6448723,52.7431631 C55.751945,52.4971906 55.8228684,52.3347151 55.8947741,52.1700786 C55.8163851,52.1396267 55.770609,52.1050491 55.7482122,52.116444 C55.6476228,52.167721 55.5537132,52.2323576 55.4572495,52.2920825 L55.4572495,52.2920825 Z M127.793006,26.2600589 C127.84055,26.211336 127.887898,26.1628094 127.935442,26.1140864 C127.819725,25.959666 127.723458,25.7834381 127.582986,25.6559332 C127.394381,25.4846169 127.147623,25.3749902 126.967073,25.1969941 C126.107544,24.3492534 125.344872,23.4759725 125.739764,22.100334 C125.850963,21.7131041 125.72169,21.2565226 125.702829,20.8366798 C124.545855,21.1816699 124.084951,21.9781336 123.963536,23.0327505 C124.525422,23.4356974 124.524047,23.6586837 123.916189,23.9457171 C124.102043,24.4093713 124.158821,24.9561297 124.939764,24.7602554 C125.136424,24.7111395 125.592024,25.0191945 125.649391,25.2366798 C125.751945,25.6258743 125.95391,25.7172299 126.281022,25.7991552 C126.791238,25.927053 127.28947,26.1038703 127.793006,26.2600589 L127.793006,26.2600589 Z M129.427583,104.889332 C129.051159,104.685992 128.800079,104.535305 128.535639,104.413497 C128.403418,104.352593 128.219136,104.276562 128.106758,104.32332 C127.604008,104.53275 127.063929,104.713694 126.644479,105.041984 C126.309705,105.30387 125.935639,105.759862 125.928566,106.136287 C125.919332,106.626464 125.738389,106.909371 125.438782,107.200923 C124.997525,107.629804 124.481022,107.984224 124.50499,108.731965 C124.518743,109.154951 124.688094,109.457308 125.083576,109.290707 C125.671788,109.043163 126.309509,108.771257 126.743497,108.330196 C127.530727,107.529411 128.189077,106.601316 128.888094,105.715855 C129.090059,105.460059 129.247033,105.1689 129.427583,104.889332 L129.427583,104.889332 Z M188.459214,53.0182122 L188.459214,66.6822593 C188.511277,66.6966012 188.563536,66.7105501 188.615796,66.7246955 C189.004204,65.5918861 189.404597,64.4628094 189.775717,63.3243026 C189.923065,62.8724361 190.148212,62.4007269 189.650963,61.9724361 C189.545265,61.881277 189.581218,61.6001375 189.588291,61.4081925 C189.629548,60.2824558 189.732495,59.1567191 189.717957,58.0321611 C189.695167,56.2779371 189.231906,54.6123183 188.459214,53.0182122 L188.459214,53.0182122 Z M58.9281729,28.4309823 C58.8863261,28.4001375 58.8442829,28.3692927 58.8024361,28.3384479 C58.4912377,28.5681139 58.1218861,28.749057 57.8806287,29.0372692 C57.3603929,29.6580943 56.9100982,30.3370727 56.4232613,30.9863851 C56.0953635,31.4237132 55.9774853,31.8753831 56.1562672,32.4209627 C56.249391,32.7056385 56.3049902,33.0669352 56.2085265,33.3319646 C56.1081336,33.6070138 55.7839686,33.7928684 55.59222,34.0441454 C55.2271906,34.5225344 54.7617682,34.976169 54.5717878,35.5215521 C54.3904519,36.0417878 54.0478193,36.2453242 53.640943,36.3773477 C53.2000786,36.5205697 52.805776,37.0260707 52.8768959,37.5742043 C53.2152063,37.3971906 53.5480157,37.2231238 54.0240472,36.9742043 C53.9784676,37.4956189 53.9401572,37.8724361 53.9157957,38.2500393 C53.9099018,38.3425737 53.9171709,38.4688998 53.9731631,38.527053 C54.3266012,38.8946365 54.6953635,39.2472888 55.0592141,39.6048527 C55.1444794,39.5690963 55.2299411,39.5335363 55.3154028,39.49778 C55.2159921,38.8755796 55.1165815,38.2535756 55.0169745,37.6313752 C55.0507662,37.6133006 55.0843615,37.5954224 55.1179568,37.5773477 C55.371002,37.8649705 55.6240472,38.1523969 55.8676621,38.4292141 C56.9541061,37.3875639 56.3391749,36.0738114 56.3737525,34.8594695 C56.4321022,34.8891356 56.4904519,34.918998 56.548998,34.948664 C56.6988998,34.7176228 56.8488016,34.4865815 57.0784676,34.132947 C57.1961493,34.7848134 57.2890766,35.2979764 57.3890766,35.8512181 C57.865501,35.1983694 58.2148134,34.6258743 58.6566601,34.1370727 C59.2311198,33.5015128 59.2627505,33.53 58.5725737,33.1319646 C58.5397642,33.1131041 58.506169,33.0960118 58.4580354,33.0700786 C58.5214931,32.932947 58.5849509,32.7954224 58.6028291,32.7569155 C58.3110806,32.3971906 58.0660904,32.094833 57.8099018,31.778723 C58.2028291,31.3869745 58.52778,31.0633988 58.8768959,30.7154617 C58.784558,30.681277 58.662947,30.6362868 58.5049902,30.5779371 C59.0700196,30.1930648 59.0700196,30.1930648 59.1525344,29.2258743 C58.9806287,29.1708644 58.8077407,29.1154617 58.6878978,29.0771513 C58.779057,28.8317682 58.8535167,28.6313752 58.9281729,28.4309823 L58.9281729,28.4309823 Z M133.378075,84.5001375 L133.546051,84.5916896 C133.67277,84.5408055 133.80165,84.4942436 133.926208,84.4382515 C134.596935,84.1368762 135.352731,83.9598625 135.641532,83.1323576 C135.689666,82.9944401 135.961572,82.9429666 136.115992,82.8321611 C136.599686,82.4852063 137.443694,82.6398232 137.571591,81.7775442 C137.584165,81.6930648 137.823458,81.6439489 137.955874,81.5749902 C138.07002,81.5152652 138.209902,81.4753831 138.289666,81.3840275 C138.552927,81.0820629 138.794381,80.7606483 139.052534,80.4358939 C139.203222,80.0854028 139.338585,79.6785265 139.546051,79.3125147 C139.791631,78.878723 140.143694,78.5026916 140.367859,78.0602554 C140.581807,77.6382515 139.926601,76.7307859 139.450963,76.7168369 C138.794578,76.6979764 138.478271,76.3964047 138.420118,75.7268566 C138.394578,75.432947 138.378664,75.138055 138.348016,74.6969941 C137.932299,75.2645776 137.577682,75.6673281 137.319332,76.124499 C137.068841,76.567721 136.776896,76.8382515 136.248605,76.7582908 C135.783576,76.6879568 135.548212,76.9162475 135.444086,77.3451277 C135.383772,77.5940472 135.293988,77.8356974 135.223065,78.0822593 C134.607151,80.2211591 133.992613,82.3608448 133.378075,84.5001375 L133.378075,84.5001375 Z M105.337603,44.5716503 C105.435049,43.6681139 105.640157,42.8077996 105.5822,41.9655599 C105.538782,41.3347151 105.854499,41.1740079 106.250373,40.9282318 C106.389862,40.8417878 106.460786,40.6368762 106.549391,40.4783301 C106.602829,40.3826523 106.600668,40.2364833 106.674931,40.1745972 C107.139568,39.786778 106.911277,39.4887426 106.556464,39.2225344 C106.255285,38.9966012 105.711081,38.8419843 105.661572,38.5820629 C105.534656,37.9154617 105.456071,37.1480747 105.675914,36.5349116 C105.86668,36.0022986 106.481611,35.6142829 106.930727,35.1850098 C107.15332,34.9724361 107.494774,34.8578978 107.656464,34.6150688 C107.863536,34.3038703 108.239764,33.9632024 107.873752,33.4356974 C104.425815,36.2040668 101.061572,39.0030845 97.6961493,42.0042633 C98.7959528,42.365167 99.4788605,42.1227308 99.9417289,41.273222 C99.9857367,41.1924754 100.078468,41.1191945 100.165501,41.083831 C100.538978,40.9331434 101.074145,40.9166405 100.736031,40.2569155 C100.695953,40.1785265 100.843497,40.0040668 100.870609,39.9459136 C101.024047,40.2107466 101.299882,40.4773477 101.315599,40.7584872 C101.344676,41.2820629 101.459214,41.7103536 101.894381,42.0229273 C101.710098,42.9459136 102.319136,43.4793124 102.70224,43.8854028 C102.826601,44.4846169 102.913045,44.9007269 103.006365,45.3504322 C103.330334,45.2942436 103.593202,45.2488605 103.849784,45.2044597 C103.951552,44.562613 104.245855,44.4241061 105.337603,44.5716503 L105.337603,44.5716503 Z M4.38868369,52.7531827 C3.69772102,54.6714538 3.19202358,56.5726326 2.87237721,58.5356974 C2.2448723,62.3895285 2.25489194,66.2268566 3.02797642,70.0525933 C3.40223969,71.9048527 4.00675835,73.6883497 4.98259332,75.3188016 C5.45489194,76.1076031 6.34035363,76.4614342 7.2491945,76.2368762 C8.05941061,76.0368762 8.58711198,75.4861886 8.80184676,74.670668 C8.99379175,73.9423772 8.65155206,73.3362868 8.36569745,72.6971906 C7.41874263,70.5795088 6.94644401,68.3402161 6.76412574,66.0341257 C6.59005894,63.8327505 6.63563851,61.6345187 7.03721022,59.4639882 C7.30695481,58.0068173 7.72247544,56.5769548 8.0513556,55.1301965 C8.08986248,54.9604519 8.05253438,54.6474853 7.94781925,54.5909037 C6.78396857,53.96222 5.59968566,53.3710609 4.38868369,52.7531827 L4.38868369,52.7531827 Z M52.9930059,39.4885462 C52.7470334,39.5800982 52.5393713,39.741002 52.4010609,39.694833 C51.662554,39.4472888 51.649391,40.0323576 51.5000786,40.4437525 C51.1882908,41.3022986 50.9042043,42.1710609 50.5920236,43.0294106 C50.4515521,43.4152652 50.1165815,43.7944401 50.1356385,44.1630059 C50.2095088,45.5938507 49.8293517,46.8260707 48.8503733,47.8777407 C48.7252259,48.0123183 48.6246365,48.2048527 48.592613,48.3846169 C48.4649116,49.1046562 48.3930059,49.8349116 48.249391,50.5512181 C48.1894695,50.8512181 48.0085265,51.1288212 47.8708055,51.4107466 C47.7666798,51.6239096 47.5772888,51.8170334 47.5407466,52.038055 C47.3256189,53.3429666 47.1486051,54.654165 46.9501768,55.9618271 C46.492613,58.9755796 46.5961493,62.0093713 46.6254224,65.0400196 C46.6287623,65.3720432 46.7026326,65.7032809 46.74389,66.0349116 C46.8085265,66.0370727 46.8733595,66.0392338 46.9379961,66.0413949 C46.9981139,65.7209627 47.0425147,65.3962083 47.1218861,65.0806876 C47.2810216,64.4472888 46.8022397,63.7950295 47.3513556,63.1237132 C47.6865226,62.7140864 47.7165815,62.0079961 47.7649116,61.4252849 C47.806169,60.9241061 47.9431041,60.6034774 48.4427112,60.4502358 C48.657446,60.3844204 48.8434971,60.2254813 49.0385855,60.111336 C48.7941847,59.481277 48.9578389,58.5804912 49.4283694,58.1215521 C49.7425147,57.8154617 50.1529273,57.5983694 50.4289587,57.2657564 C50.6875049,56.954165 51.184165,56.7111395 51.5843615,56.8643811 C50.7598035,57.1402161 50.4452652,57.8152652 50.8684479,58.449057 C51.2474263,58.0606483 51.3772888,57.4091749 52.0144204,57.3093713 C52.6118664,57.2158546 52.6275835,56.3800982 53.2711984,56.3478782 C53.3042043,56.34611 53.3670727,56.1449312 53.3472299,56.0508251 C53.3055796,55.8512181 53.2183497,55.6614342 53.1521415,55.4738114 C52.6987033,55.6712574 52.892613,56.8186051 52.0385855,56.4036739 C51.2586248,56.0248919 51.4436935,55.2388409 51.6374067,54.6127112 C51.4541061,54.5217485 51.3126523,54.4514145 51.092613,54.3421807 C51.2440864,54.2946365 51.2843615,54.2909037 51.314224,54.2712574 C51.5187426,54.1370727 51.7708055,54.0351081 51.9042043,53.8488605 C51.9782711,53.7457171 51.8949705,53.3720432 51.808723,53.343556 C51.6169745,53.2802947 51.3470334,53.2964047 51.1664833,53.3905108 C50.8281729,53.5665422 50.5309234,53.8209627 50.1018468,54.1241061 C50.251945,53.8537721 50.3275835,53.6795088 50.4364244,53.5292141 C50.7291552,53.1250884 51.0106876,52.7074067 51.348998,52.3437525 C51.5055796,52.1753831 51.7780747,52.0488605 52.0085265,52.0296071 C52.4130452,51.9958153 52.8281729,52.0967976 53.2342633,52.070275 C53.5507662,52.0494499 53.9476228,52.0150688 54.1556778,51.821945 C54.6564637,51.3565226 55.0244401,50.7840275 55.7550884,50.5606483 C56.2935953,50.3960118 56.3745383,49.8685069 56.3627505,49.3068173 C56.3548919,48.9288212 56.8287623,48.4588802 56.0537132,48.383831 C56.065501,48.2368762 56.0784676,48.0744008 56.1004715,47.8015128 C55.7812181,47.9366798 55.5637328,48.0288212 55.3462475,48.1207662 C55.3216896,48.0826523 55.2971316,48.0449312 55.2725737,48.0070138 C55.5495874,47.8292141 55.8264047,47.651611 56.1920236,47.4170334 C55.9256189,47.2840275 55.7368173,47.1881532 55.5466405,47.0952259 C55.0495874,46.8525933 55.1018468,46.2759725 54.8342633,45.8883497 C54.7434971,45.7569155 54.8772888,45.4575049 54.9336739,45.2413949 C54.970609,45.0997446 55.106169,44.9694892 55.1049902,44.8349116 C55.100668,44.2816699 55.0486051,43.7290177 55.0374067,43.1755796 C55.0240472,42.5123183 55.0342633,41.848664 55.0342633,41.1494499 C54.4745383,42.1127112 54.1140275,43.1679175 53.1550884,43.8142829 C52.7865226,42.9604519 52.9658939,42.1797053 53.3181532,41.4415914 C53.516778,41.0252849 53.514224,40.7767583 53.0904519,40.6952259 C53.0562672,40.2714538 53.0262083,39.8995481 52.9930059,39.4885462 L52.9930059,39.4885462 Z M60.7102947,93.8663458 C60.7543026,93.5633988 60.900668,93.1612377 60.8055796,93.092279 C60.5480157,92.9060314 60.1920236,92.841002 59.8660904,92.7700786 C59.7405501,92.7429666 59.5902554,92.8301965 59.4511591,92.8655599 C59.4877014,92.6944401 59.4690373,92.473222 59.5708055,92.3614342 C59.8788605,92.0231238 59.9095088,91.7510216 59.5900589,91.3857957 C59.3207073,91.0777407 59.1686444,90.6704715 58.9187426,90.3419843 C58.4965422,89.7873674 58.0381925,89.2600589 57.5947741,88.7215521 C56.9837721,87.9795088 55.8047937,88.0859921 55.2985069,87.1740079 C55.1244401,86.8602554 54.9047937,86.5641847 54.665501,86.2960118 C54.3867191,85.9840275 54.0346562,85.7360904 53.7656974,85.4172299 C53.2988998,84.8633988 53.270609,83.8262672 52.1560707,84.0024951 C52.1020432,84.0111395 52.0212967,83.9252849 51.9702161,83.8679175 C51.6352456,83.4905108 51.0332809,83.3759725 50.9069548,82.7861886 C50.8965422,82.7378585 50.7633399,82.7160511 50.6042043,82.6445383 C50.6682515,82.8339293 50.6888802,82.9282318 50.7301375,83.0121218 C51.6509627,84.8944401 52.5315128,86.7975835 53.5055796,88.6518075 C55.5751277,92.5911002 58.2609823,96.105442 61.3079371,99.318998 C63.1026326,101.212122 65.1317092,102.884224 67.0721807,104.637269 C67.4507662,104.979312 67.8912377,105.262417 68.3330845,105.522141 C68.6022397,105.679902 68.8751277,105.800334 68.9356385,105.233733 C69.0340668,104.315658 68.8843615,103.469489 68.527387,102.637466 C68.3973281,102.334322 68.2939882,102.019587 68.1988998,101.765363 C68.3990963,101.660452 68.6572495,101.58167 68.6533202,101.518802 C68.6187426,100.947485 69.1340668,100.754361 69.3763065,100.379312 C69.5189391,100.158487 69.692613,99.8535756 69.6427112,99.6345187 C69.5387819,99.1799018 69.3313163,98.7364833 69.0947741,98.3298035 C68.9598035,98.09778 68.6990963,97.9258743 68.4678585,97.7663458 C68.2291552,97.6017092 67.9059725,97.5360904 67.7091159,97.3382515 C66.7450688,96.3690963 65.6342633,95.6667387 64.3095088,95.3066208 C63.9873084,95.218998 63.6768959,95.0883497 63.3580354,94.9765619 C62.8932024,94.1470923 61.9892731,93.8592731 61.2717878,93.3767583 C61.0393713,93.5795088 60.857446,93.738055 60.7102947,93.8663458 L60.7102947,93.8663458 Z M122.065108,90.8254813 C119.415992,93.1742043 116.828566,95.538055 114.164519,97.8123183 C111.016974,100.499155 107.800668,103.105246 104.6211,105.754754 C104.124244,106.1689 103.594185,106.574008 103.206758,107.080884 C102.752731,107.675187 102.927583,108.272436 103.411473,108.82332 C103.87945,109.35613 104.263536,109.962809 104.677682,110.541788 C104.718546,110.598959 104.708919,110.6911 104.727583,110.765756 C104.882397,111.385403 105.026208,112.008193 105.203418,112.621552 C105.241729,112.753969 105.383183,112.877937 105.507151,112.960648 C106.161965,113.397583 106.749391,113.85947 106.670806,114.777937 C106.661965,114.881277 106.886719,115.074401 107.029745,115.106621 C107.329548,115.174204 107.652534,115.208585 107.956464,115.173222 C108.60224,115.097976 109.244676,114.983242 109.883576,114.859077 C110.865108,114.668507 111.910295,114.610747 112.805776,114.217033 C114.100275,113.648075 115.294774,112.845128 116.508134,112.103674 C116.760982,111.949253 117.030138,111.650825 117.084951,111.377151 C117.211866,110.745914 117.684361,110.599745 118.159607,110.482849 C119.27611,110.207996 119.635049,109.666542 119.493006,108.451611 C119.471984,108.272829 119.629745,107.985992 119.789862,107.886974 C120.930923,107.182456 122.116582,106.548075 123.238978,105.816248 C123.66943,105.535501 124.117564,105.115265 124.297328,104.656523 C124.565108,103.972436 124.602633,103.19778 124.743104,102.43275 C124.174931,102.049057 124.057446,101.280491 124.506562,100.410157 C124.082593,100.180688 124.136621,99.8543615 124.371591,99.5203733 C124.620511,99.1659528 124.919528,98.8429666 125.135639,98.470668 C125.248802,98.2763654 125.33112,97.9647741 125.254303,97.7771513 C124.902436,96.9182122 124.487898,96.0848134 124.098507,95.2413949 C123.420707,93.7720432 122.744872,92.3021022 122.065108,90.8254813 L122.065108,90.8254813 Z M79.441336,85.4712574 C79.6077407,85.8077996 79.9079371,86.154558 79.9285658,86.5170334 C79.96,87.0645776 80.2100982,87.6561297 80.6855403,87.8726326 C80.8515521,87.9480747 80.9782711,88.11389 81.1183497,88.2433595 C81.513831,88.6095678 81.8988998,88.9873674 82.3036149,89.3427701 C82.6529273,89.6494499 82.9823969,89.8871709 83.092613,90.4431631 C83.184558,90.9066208 83.6238507,91.3675246 84.0226719,91.6889391 C84.7069548,92.2400196 85.4639293,92.7081925 86.2201179,93.1614342 C86.9187426,93.5800982 87.6102947,94.1661493 88.516778,93.7323576 C89.0104912,93.4962083 89.5132417,93.249057 89.9452652,92.919391 C96.0317092,88.2779371 101.814617,83.2747937 107.50224,78.1580943 C107.831906,77.8618271 108.193792,77.6011198 108.624047,77.2573084 C107.144086,76.5608448 105.904597,75.9857957 104.672377,75.3954224 C102.295756,74.2563261 99.9234578,73.1076031 97.5484086,71.9647741 C96.9955599,71.6987623 96.4264047,71.4628094 95.8867191,71.1722397 C95.2034185,70.8042633 94.849391,70.0810806 94.9678585,69.3855992 C95.1024361,68.5938507 95.4825933,67.9889391 96.3372102,67.8875639 C97.5144204,67.7482711 98.6983104,67.6630059 99.8800393,67.5649705 C100.68947,67.4979764 101.500275,67.4484676 102.413635,67.383831 C102.166483,67.1097642 102.01442,66.941002 101.882986,66.7952259 C102.033084,66.4873674 102.160589,66.2252849 102.288291,65.9632024 C102.251552,65.9417878 102.214813,65.9201768 102.178075,65.8987623 C102.035442,65.9863851 101.892809,66.0742043 101.728762,66.1749902 C101.594381,65.9618271 101.483969,65.7861886 101.379843,65.6211591 C101.169037,65.6353045 100.960196,65.5909037 100.819921,65.6690963 C100.288094,65.9661493 99.7653045,66.1301965 99.1523379,65.9072102 C98.9083301,65.8186051 98.5214931,65.7339293 98.3674656,65.8573084 C97.8093124,66.3038703 97.2352456,66.0221415 96.6601965,66.0606483 C95.7566601,66.1215521 94.8605894,66.3614342 93.9747348,66.5795088 C93.638389,66.6624165 93.3399607,66.8969941 93.0226719,67.059666 C92.7322986,67.2087819 92.406169,67.3115324 92.1564637,67.510943 C91.7802358,67.811336 91.4079371,67.8036739 90.9908448,67.6647741 C90.8271906,67.6103536 90.6491945,67.6001375 90.4800393,67.5598625 C89.9727701,67.4392338 89.3729666,67.8665422 88.935835,67.2852063 C88.8480157,67.1685069 88.6635363,67.1248919 88.5236542,67.0476817 C88.4462475,67.1909037 88.3458546,67.3266601 88.2953635,67.478723 C88.0541061,68.2072102 87.7766994,68.8861886 86.9621611,69.1816699 C86.6523379,69.2940472 86.3672692,69.5017092 86.1020432,69.7062279 C85.5122593,70.1608448 85.6128487,70.9820629 85.1765029,71.527053 C85.1470334,71.5639882 85.2275835,71.6751866 85.227387,71.7518075 C85.2260118,72.2152652 85.4765029,72.7301965 84.9395678,73.0879568 C84.8330845,73.1586837 84.8038114,73.341002 84.6996857,73.419391 C84.2713949,73.7425737 83.8668762,74.1671316 83.3796464,74.3221415 C82.8596071,74.4877603 82.579057,74.7744008 82.3672692,75.2152652 C82.3185462,75.3168369 82.2794499,75.4830452 82.2045972,75.5032809 C81.549391,75.6793124 81.4148134,76.2520039 81.1588212,76.7618271 C80.8491945,77.3779371 80.4539096,77.9504322 80.1038114,78.5465029 C79.9456582,78.8156582 79.8299411,79.1121218 79.6539096,79.3681139 C79.3348527,79.8319646 79.4152063,80.302888 79.8556778,80.6861886 C79.9766994,80.7914931 80.0089194,81.0268566 80.0317092,81.2089784 C80.0529273,81.3775442 79.941336,81.5824558 80.0012574,81.7233202 C80.5857367,83.1019057 79.94389,84.2594695 79.441336,85.4712574 L79.441336,85.4712574 Z M197.832888,62.7447348 C197.880825,62.5378585 197.934067,62.4079961 197.937603,62.2769548 C197.984754,60.4592731 198.143104,58.6349116 198.042711,56.8250884 C197.828566,52.9679175 196.529352,49.4386444 194.438193,46.2040668 C192.288094,42.8785265 189.391827,40.3488605 186.059804,38.240609 C183.61167,36.6914931 180.992024,35.8502358 178.117564,35.7954224 C176.13387,35.7575049 174.148802,35.7781336 172.164519,35.7999411 C171.673949,35.805442 171.178075,35.8863851 170.695756,35.9863851 C168.724047,36.3954224 167.11835,37.5278389 165.69556,38.8402161 C164.333477,40.0966012 163.136424,41.5431631 161.948212,42.9736149 C160.081611,45.2213556 158.188684,47.4298035 155.793006,49.1484676 C155.656464,49.2463065 155.579646,49.5527898 155.611081,49.7394303 C155.877092,51.3233202 156.184558,52.8999411 156.458035,54.4826523 C156.568055,55.1184086 156.624244,55.7635953 156.723654,56.5525933 C157.704794,55.9272495 158.606955,55.3985658 159.45725,54.7967976 C160.281022,54.2134971 161.05332,53.5573084 161.844872,52.9290177 C162.319921,52.5520039 162.835246,52.427446 163.398703,52.6918861 C163.925029,52.9388409 164.019528,53.424499 164.036817,53.9402161 C164.041729,54.0789194 164.0378,54.2178193 164.0378,54.3567191 L164.0378,69.2400196 L164.0378,69.9085855 L186.636621,69.9085855 L186.636621,69.1561297 C186.636621,63.143556 186.634656,57.1307859 186.642122,51.1180157 C186.642515,50.7855992 186.687505,50.4445383 186.771198,50.1231238 C186.895756,49.6437525 187.219332,49.3290177 187.722672,49.2557367 C188.224244,49.1828487 188.626994,49.3891356 188.889077,49.8072102 C190.046248,51.6522004 190.962358,53.6152652 191.26334,55.7806876 C191.496346,57.4567191 191.522672,59.1616306 191.648016,60.9592731 C193.580825,61.5174263 195.669627,62.1203733 197.832888,62.7447348 L197.832888,62.7447348 Z M115.14055,62.1730255 L115.126208,62.1620236 C115.056464,62.4494499 114.986326,62.7372692 114.901257,63.0869745 L115.530334,63.0869745 C115.496346,63.2040668 115.44055,63.2889391 115.458821,63.3523969 C115.557446,63.6956189 115.855678,64.0806876 115.223065,64.2345187 C115.212259,64.2372692 115.234067,64.5317682 115.267466,64.5376621 C115.965697,64.6612377 115.80499,65.4034774 116.235049,65.8233202 C121.721297,64.6419843 127.021886,62.7480747 132.186719,60.5614342 C131.815206,60.0129077 131.427976,59.5549509 131.173163,59.0323576 C130.922475,58.5176228 130.954892,57.8635953 130.354303,57.5260707 C130.286523,57.4879568 130.310098,57.2763654 130.30224,57.1443418 C130.253517,56.3345187 130.95725,56.0455206 131.401454,55.5820629 C131.565108,55.4111395 131.78888,55.2987623 131.982004,55.1553438 C132.464322,54.7971906 132.925029,54.3463065 133.58613,54.805442 C133.592417,54.8097642 133.616582,54.7804912 133.63446,54.7771513 C134.212063,54.6675246 134.356464,54.784224 134.367466,55.3810806 C134.373752,55.7311788 134.368644,56.0814735 134.368644,56.4044597 C133.484754,56.1182122 133.255874,56.2909037 133.366287,57.2700786 C133.158232,57.2985658 132.950373,57.327053 132.810884,57.34611 C133.091631,57.7649705 133.370413,58.1154617 133.576896,58.5046562 C133.858428,59.035501 134.794578,59.4186051 135.319725,59.1797053 C137.032888,58.4009234 138.745069,57.6203733 140.463733,56.8539686 C141.262358,56.49778 142.072377,56.4783301 142.741139,57.0999411 C143.378075,57.692279 143.426405,58.4738114 143.096935,59.2394303 C142.549587,60.5111395 141.943301,61.7573084 141.376306,63.0209627 C139.999293,66.0907073 138.620904,69.1598625 137.26609,72.2394303 C136.975128,72.9007269 136.781415,73.6046562 136.544086,74.2850098 C137.066483,74.527053 137.464322,74.5816699 137.928369,74.1995481 C138.442318,73.7759725 138.662358,73.9085855 138.839175,74.5952259 C138.913635,74.8848134 138.929352,75.1865815 139.368448,75.1578978 C140.549784,75.0806876 141.738782,75.5015128 142.922672,75.0586837 C143.387308,74.8848134 143.902829,74.8470923 144.384754,74.7496464 C144.838389,75.5983694 145.195363,76.4985658 146.418153,76.6476817 C146.13721,76.83 145.923654,76.9687033 145.641925,77.1514145 C145.927191,77.4806876 146.224244,77.8239096 146.65332,78.3195874 C146.968841,77.6993517 147.204597,77.2366798 147.440354,76.7740079 C147.531709,78.3007269 147.452338,79.8339293 147.55391,81.3549509 C147.654892,82.8694892 147.937407,84.3716503 148.140354,85.8795088 C148.408919,85.6852063 148.53112,85.4850098 148.669627,85.2971906 C149.409705,84.2926719 149.802829,83.1470923 149.957053,81.9284283 C150.051945,81.1804912 150.240943,80.5089784 150.807544,79.9834381 C150.87945,79.9170334 150.96334,79.8520039 151.006955,79.7685069 C151.656071,78.5176228 152.296739,77.2628094 152.947623,76.0129077 C153.008527,75.8956189 153.126994,75.8089784 153.212456,75.7030845 C153.348212,75.5349116 153.556857,75.3793124 153.598703,75.1883497 C153.884165,73.8960118 154.139961,72.5969941 154.393006,71.2975835 C154.912849,68.6284283 155.140157,65.9256778 155.164519,63.2136935 C155.181415,61.3543615 155.127387,59.484224 154.939371,57.6356974 C154.697525,55.2602554 154.4211,52.8738114 153.927976,50.541002 C152.626405,44.384224 150.21776,38.6525933 146.868448,33.3298035 C144.150177,29.0105501 140.925619,25.1036739 137.094185,21.7146758 C136.91442,21.5555403 136.719332,21.4134971 136.504008,21.2413949 C136.406955,22.335501 137.450963,22.6074067 137.851159,23.2688998 C137.207151,22.7679175 136.514028,23.1755796 135.863536,23.081277 C136.407151,23.7331434 136.746248,24.4614342 137.580629,24.8881532 C138.528173,25.3726326 139.103811,26.3710609 139.686719,27.2755796 C139.764715,27.3967976 139.753124,27.5759725 139.787898,27.7523969 C139.482397,27.4197839 139.163733,27.1883497 139.004597,26.8759725 C138.638782,26.1561297 138.251159,25.4932613 137.409902,25.2559332 C137.393399,25.2514145 137.383772,25.2258743 137.367859,25.2148723 C137.042908,24.9936542 136.727583,24.7551473 136.386523,24.5624165 C136.261768,24.4918861 136.075324,24.5309823 135.917171,24.5201768 C135.899096,24.5736149 135.880825,24.627053 135.86275,24.6802947 C136.072967,24.7940472 136.283379,24.9077996 136.493595,25.0215521 C136.43053,25.0954224 136.367269,25.1694892 136.304204,25.2431631 C136.071591,25.1256778 135.839175,25.0081925 135.583969,24.8791159 C135.723458,25.8050491 136.693399,25.7315717 137.138585,26.2217485 C135.668644,26.1969941 135.213045,24.9859921 134.56334,23.9997446 C134.607544,24.3091749 134.780432,24.5875639 134.74723,24.8388409 C134.682397,25.3307859 134.798507,25.6800982 135.175521,26.0070138 C135.495363,26.2846169 135.793202,26.61389 136.013045,26.9736149 C136.306562,27.4537721 136.488291,28.0019057 136.777289,28.4852063 C136.857642,28.6197839 137.14389,28.6592731 137.343301,28.6875639 C137.578468,28.7211591 137.822475,28.6954224 138.062358,28.6954224 C137.357053,29.2370727 137.368644,29.2987623 137.922672,29.9551473 C138.088094,30.1512181 138.165697,30.4724361 138.173949,30.7396267 C138.189862,31.2582908 138.128173,31.7795088 138.093202,32.3979764 C137.329352,32.0844204 136.693988,31.8237132 136.058821,31.5628094 C136.085344,31.4950295 136.11167,31.427053 136.1378,31.3588802 C136.547426,31.511336 136.957053,31.6637917 137.479843,31.8582908 C137.479843,31.3523969 137.553124,30.854558 137.458428,30.3909037 C137.372574,29.970275 137.143497,29.5616306 136.906562,29.1934578 C136.590059,28.7017092 136.182004,28.2696857 135.855874,27.7834381 C135.461375,27.1952259 135.187898,26.5066208 134.716974,25.9954224 C134.364126,25.6125147 134.115599,25.2445383 134.001061,24.7522004 C133.820904,23.9777407 133.311081,23.5520039 132.535246,23.4294106 C132.331709,23.3971906 132.127583,23.3688998 131.95057,23.3429666 C132.104794,23.9769548 132.541925,24.7150688 132.338585,25.1614342 C131.937603,26.0413949 132.830727,26.219391 132.923065,26.7769548 C132.953713,26.9630059 133.01501,27.1484676 133.091827,27.3209627 C133.162161,27.4791159 133.241729,27.657112 133.370216,27.7604519 C133.745658,28.062613 134.114224,28.4087819 134.547033,28.5932613 C135.052338,28.8089784 134.97277,29.1850098 135.044872,29.600334 C133.57336,28.4846169 132.135049,27.4362868 130.257053,27.2394303 C129.993006,27.9272495 130.823065,28.0661493 130.90558,28.5168369 C130.734656,28.7313752 130.588094,28.9154617 130.390648,29.1632024 C130.322868,29.0604519 130.23112,28.938055 130.157053,28.805835 C130.067662,28.6463065 129.993006,28.4783301 129.975914,28.4439489 C129.407151,28.524499 128.948212,28.5820629 128.492613,28.6588802 C128.36275,28.6808841 128.240157,28.7537721 128.118153,28.8117289 C127.836621,28.9457171 127.557642,29.0846169 127.401061,29.1612377 C127.242908,28.7525933 127.142515,28.4934578 127.042318,28.2345187 C126.980039,28.2533792 126.91776,28.2722397 126.855285,28.2911002 C126.839764,28.3954224 126.824244,28.4997446 126.808527,28.6046562 C126.682986,28.5800982 126.56943,28.5580943 126.427976,28.5303929 C126.48554,28.6981729 126.523261,28.8081925 126.593595,29.0142829 C126.144086,28.6089784 125.811081,28.6848134 125.415206,29.0934578 C125.111866,29.4066208 124.742122,29.6555403 124.525619,29.8319646 C124.394774,30.2129077 124.382004,30.6013163 124.193399,30.727446 C123.786326,30.9999411 123.207544,30.640609 122.667073,29.8520039 C122.915992,29.7060314 123.160196,29.5628094 123.404204,29.419391 C122.987112,28.4233202 122.048605,28.5901179 121.251552,28.411336 C121.866483,28.7470923 122.035246,29.2769548 122.007151,29.9203733 C122.001061,30.0592731 122.068251,30.2857957 122.166483,30.3309823 C122.768055,30.6081925 122.615206,31.0810806 122.548016,31.6303929 C122.122279,31.4881532 121.739371,31.3604519 121.377289,31.2394303 C121.125422,31.4563261 120.882593,31.651611 120.655678,31.8641847 C120.131906,32.3547544 120.13112,32.5783301 120.544872,33.1478782 C120.648998,33.2911002 120.630727,33.5233202 120.668448,33.7144794 C120.469627,33.7040668 120.247426,33.7482711 120.076503,33.6736149 C119.49556,33.4201768 118.933084,33.1250884 118.357053,32.8425737 C118.197721,33.5738114 118.366483,33.7814735 119.092024,33.9582908 C119.246837,33.9960118 119.341336,34.2804912 119.463733,34.4512181 C119.301061,34.5260707 119.097328,34.7040668 118.98279,34.6582908 C118.462554,34.4500393 117.965501,34.1822593 117.464912,33.9264637 C117.402436,33.8946365 117.35725,33.8133006 117.322672,33.7451277 C117.124047,33.354558 116.93112,32.9608448 116.723065,32.5421807 C117.05391,32.1559332 117.003811,31.8019057 116.41442,31.6443418 C115.845265,31.492279 115.542318,31.0514145 115.118743,30.7455206 C115.022868,30.6763654 114.994774,30.5131041 114.925422,30.3728291 C115.666287,30.6969941 116.326601,31.0121218 117.007544,31.2726326 C117.332299,31.3967976 117.728762,31.3500393 118.036228,31.4981729 C118.657446,31.7971906 119.273556,31.7360904 119.887308,31.5751866 C120.334263,31.4577014 120.705187,30.3443418 120.386916,30.0806876 C119.845462,29.6319646 119.259018,29.2347151 118.671788,28.84611 C118.316778,28.611336 117.92169,28.4384479 117.549587,28.2286248 C117.222868,28.0443418 116.909312,27.835501 116.578664,27.6588802 C116.095756,27.4011198 115.660196,27.454165 115.210884,27.8048527 C114.241532,28.5608448 113.23446,29.2681139 112.25391,30.0099607 C111.389273,30.6639882 110.539568,31.3378585 109.661179,32.0203733 C109.794381,32.0983694 109.876306,32.1539686 109.964519,32.1962083 C110.070216,32.2468959 110.182593,32.2834381 110.289862,32.3313752 C110.612259,32.4751866 110.703026,32.9537721 110.470216,33.2062279 C110.178861,33.5223379 109.892417,33.8437525 109.620707,34.1767583 C109.27945,34.5954224 109.027191,35.1333399 108.60224,35.4229273 C108.235246,35.6730255 108.129155,35.9502358 108.186719,36.2724361 C108.337407,37.1125147 108.560393,37.9396267 108.712259,38.5901179 C109.181807,38.8712574 109.627387,39.0514145 109.951749,39.3592731 C110.215992,39.6097642 110.377289,39.6254813 110.706758,39.5152652 C111.431316,39.2728291 112.179253,39.0946365 112.926798,38.9303929 C113.274735,38.8539686 113.643497,38.8710609 114.058821,38.8417878 C113.912652,39.5975835 114.919528,39.070275 115.041532,39.4852063 C114.627387,39.6804912 114.077485,39.7637917 113.90165,40.0653635 C113.658035,40.4828487 113.408527,40.3600589 113.116974,40.3388409 C112.57002,40.2989587 112.011277,40.1584872 111.482986,40.2356974 C111.174342,40.2808841 110.634263,40.273222 110.585933,40.8276424 C110.5378,41.3800982 110.833477,41.8001375 111.325815,41.8938507 C111.325815,42.1470923 111.361179,42.4081925 111.315992,42.654558 C111.270216,42.902888 111.144676,43.1364833 111.05391,43.3765619 C110.881218,43.2559332 110.648605,43.1722397 110.547426,43.0076031 C110.277485,42.5688998 109.942122,42.4828487 109.51501,42.7201768 C109.303222,42.8378585 109.047819,44.0895285 109.109312,44.3557367 C109.21835,44.8268566 109.283379,45.3077996 109.369627,45.8011198 C109.029941,45.8011198 108.830923,45.7730255 108.646248,45.8123183 C108.545658,45.8337328 108.379057,46.0070138 108.396149,46.0482711 C108.569627,46.467721 108.139961,46.5072102 108.01167,46.4987623 C107.776896,46.4832417 107.550373,46.3066208 107.325815,46.186778 C107.180039,46.1087819 106.99556,45.9030845 106.91167,45.940609 C106.06668,46.3180157 105.243301,46.7439489 104.40224,47.1305894 C104.226798,47.211336 103.968251,47.2624165 103.810295,47.1905108 C103.626994,47.1072102 103.512259,46.8730255 103.347033,46.6802947 C103.370609,46.619391 103.417367,46.4995481 103.483969,46.327446 C102.794185,46.5783301 102.182593,46.8007269 101.480039,47.0561297 C101.519332,46.8482711 101.538978,46.7453242 101.567073,46.5966012 C100.842711,46.8531827 100.600079,46.2832417 100.328762,45.8398232 C100.236621,45.689332 100.279646,45.3500393 100.395167,45.2007269 C100.658821,44.8594695 101.005187,44.5822593 101.352927,44.2453242 C100.642122,44.1042633 100.666287,43.6936542 100.977682,43.1639882 C101.024833,43.0836346 100.919725,42.9136935 100.855088,42.6734185 C100.313635,43.0296071 99.8340668,43.3451277 99.3546955,43.6606483 C99.3794499,43.6932613 99.4042043,43.7258743 99.4291552,43.7584872 C99.7097053,43.6492534 99.9902554,43.5400196 100.270806,43.4309823 C100.304794,43.5095678 100.338782,43.5881532 100.372574,43.6667387 C100.027583,43.832554 99.6823969,43.9981729 99.3045972,44.1797053 L99.3045972,45.2907073 C100.051945,45.9533792 100.069234,47.4936542 99.2260118,47.7930648 C99.1309234,47.3241061 98.8556778,47.381277 98.527387,47.5600589 C98.3918271,47.6339293 98.2279764,47.6539686 98.0853438,47.7170334 C97.5377996,47.9584872 96.9935953,48.2074067 96.3515521,48.4971906 C96.5682515,48.654165 96.6254224,48.7103536 96.6935953,48.7427701 C99.3955599,50.0258743 102.095167,51.3140864 104.803615,52.5830452 C105.559607,52.9368762 106.083576,53.7017092 106.012456,54.4606483 C105.926208,55.3783301 105.462947,55.9755796 104.490059,56.0828487 C102.700472,56.2800982 100.898703,56.3740079 99.1008644,56.4930648 C97.0262083,56.6305894 94.9507662,56.7582908 92.8745383,56.8679175 C92.3792534,56.8942436 92.0941847,56.9873674 92.2425147,57.5826523 C92.2998821,57.8133006 92.200668,58.0879568 92.1525344,58.3386444 C92.0434971,58.9044597 91.722279,59.0797053 91.1847544,58.9512181 C90.79222,58.8577014 90.3825933,58.811336 89.9784676,58.7940472 C89.1513556,58.7588802 88.2564637,58.9498428 87.5118664,58.6928684 C86.6024361,58.3791159 86.4122593,59.2936542 85.9444794,59.2726326 C86.0091159,59.8529862 86.0651081,60.3396267 86.1171709,60.8268566 C86.2093124,61.6911002 86.1150098,62.5178193 85.6110806,63.2580943 C85.4077407,63.5565226 85.4216896,63.8657564 85.7049902,64.0641847 C86.0882908,64.3327505 86.0134381,64.6938507 86.0044008,65.0522004 C86.0000786,65.2241061 85.9686444,65.3954224 85.9372102,65.6738114 C86.3499804,65.6510216 86.7262083,65.6353045 87.1016503,65.6081925 C87.4623576,65.5818664 87.7637328,65.6319646 87.9293517,66.0217485 C88.0118664,66.2160511 88.1389784,66.4276424 88.3071513,66.5378585 C88.440943,66.6250884 88.7368173,66.6525933 88.8415324,66.5647741 C89.348998,66.1376621 89.8992927,65.9533792 90.565501,66.0048527 C91.5181532,66.0785265 92.3719843,65.5392338 92.7957564,64.6905108 C92.9301375,64.4213556 93.1264047,64.1836346 93.3391749,63.8639882 C92.6338703,63.4258743 93.038389,62.9476817 93.4020432,62.4673281 C93.4140275,62.451611 93.4216896,62.4321611 93.4352456,62.4180157 C93.8554813,61.9914931 94.0537132,61.3525933 94.8319057,61.275776 C95.1283694,61.2463065 95.5932024,60.9178193 95.4981139,60.3633988 C95.46,60.1402161 95.5211002,59.9011198 95.5309234,59.6688998 C95.565501,58.8527898 96.5739489,58.5319646 97.4230648,59.076169 C97.7330845,59.2747937 98.0348527,59.4814735 98.3918271,59.1981729 C98.9207073,58.7785265 99.4381925,58.3447348 99.9672692,57.9252849 C100.038193,57.8688998 100.172377,57.8093713 100.235639,57.8394303 C100.682593,58.0502358 101.138978,58.1518075 101.459804,58.6687033 C102.175128,59.8213556 102.952338,60.9773477 104.421886,61.3266601 C104.520511,61.3500393 104.590845,61.4818664 104.680432,61.5561297 C105.083183,61.8899214 105.447819,62.3048527 105.906169,62.5233202 C106.207348,62.6671316 106.277682,62.819391 106.389862,63.0846169 C106.599686,63.5793124 106.574538,64.018998 106.34055,64.4848134 C106.288094,64.589332 106.347623,64.7498428 106.355481,64.8846169 C106.472967,64.8421807 106.642711,64.8351081 106.699489,64.7512181 C106.947033,64.3854028 107.176699,64.0048527 107.377289,63.611336 C107.421886,63.5237132 107.36334,63.2940472 107.282593,63.2459136 C106.636031,62.8590766 107.041532,62.5103536 107.327387,62.0492534 C107.680039,62.2647741 108.007544,62.4649705 108.400472,62.7048527 C108.400472,62.5162475 108.460786,62.2806876 108.391041,62.2321611 C107.7378,61.7773477 107.061965,61.3547544 106.340354,60.8889391 C106.344479,60.8718468 106.377485,60.7321611 106.429745,60.510943 C105.470806,60.7134971 105.00499,60.1353045 104.557642,59.492279 C104.281022,59.0942436 104.020118,58.6156582 103.62778,58.384224 C103.049194,58.0427701 102.947033,57.5696857 103.0822,57.0582908 C103.148802,56.8052456 103.544283,56.6390373 103.791041,56.4333399 C103.897132,56.597387 104.014617,56.7555403 104.105972,56.927446 C104.193988,57.092279 104.254892,57.2712574 104.360393,57.5221415 C104.52778,57.2744008 104.633674,57.1170334 104.788487,56.8875639 C104.98279,57.1042633 105.129352,57.3066208 105.313635,57.4653635 C105.688094,57.7883497 105.629548,58.3887426 106.139764,58.6415914 C106.5989,58.8690963 107.008527,59.1960118 107.441336,59.4769548 C107.490648,59.5091749 107.548998,59.527053 107.60165,59.5543615 C107.88888,59.7017092 108.202043,59.8148723 108.457446,60.0052456 C109.034853,60.435501 109.358821,60.9883497 109.215403,61.7567191 C109.176306,61.9669352 109.214617,62.2518075 109.33387,62.4199804 C109.70224,62.9413949 110.148802,63.4074067 110.521493,63.9262672 C110.770216,64.2728291 111.031906,64.4506287 111.479843,64.4097642 C111.715992,64.3881532 111.966876,64.5313752 112.211081,64.6001375 C112.019725,64.6993517 111.869627,64.6317682 111.7211,64.6345187 C111.460196,64.6396267 111.200079,64.6875639 110.939568,64.7176228 C111.039961,64.9019057 111.138193,65.0873674 111.242318,65.2696857 C111.271002,65.3199804 111.346837,65.3582908 111.350177,65.405835 C111.411866,66.249057 112.015796,66.0311788 112.570609,66.0565226 C112.472377,65.8248919 112.3989,65.651611 112.317367,65.459666 L112.769823,65.459666 C112.653124,65.283831 112.563143,65.1484676 112.381218,64.8744008 C112.717171,64.9396267 112.911081,64.9773477 113.104401,65.0144794 C113.348802,64.0569155 113.348802,64.0569155 112.518939,63.7797053 C112.535835,63.8724361 112.551356,63.9584872 112.567859,64.049057 C112.051749,63.8180157 112.038193,63.7427701 112.42169,63.2698821 C111.789077,62.4176228 111.789077,62.4176228 112.094381,62.0046562 C112.543497,62.5628094 112.541532,62.5465029 112.943104,61.9260707 C113.057053,61.7502358 113.329352,61.6201768 113.549194,61.5806876 C114.180825,61.4663458 114.813438,61.4335363 115.14055,62.1730255 L115.14055,62.1730255 Z M79.5930059,23.1323576 C79.7611788,23.221945 79.9291552,23.3115324 80.0908448,23.3975835 C79.9195285,23.9954224 80.116778,24.2085855 80.903222,24.3237132 C80.9297446,24.2019057 80.9560707,24.0800982 81.0118664,23.8221415 C81.0419253,23.854165 80.9670727,23.7745972 80.8996857,23.7030845 C81.0533202,23.6425737 81.1949705,23.5869745 81.3364244,23.5313752 C81.3395678,23.473222 81.3427112,23.4148723 81.3456582,23.3567191 C80.8651081,23.1875639 80.384558,23.0184086 79.9040079,22.8492534 C80.0829862,22.6616306 80.2619646,22.4740079 80.457446,22.2688998 C80.8759136,23.7050491 81.6932024,22.4592731 82.2961493,22.6095678 C82.3825933,22.3879568 82.451945,22.2105501 82.5232613,22.027446 C82.2097053,21.9903143 81.9157957,21.9555403 81.5543026,21.9127112 C81.6763065,21.7256778 81.7619646,21.5942436 81.8474263,21.4628094 C81.8694303,21.53 81.8916306,21.5969941 81.9134381,21.6641847 C82.3104912,21.619391 82.7132417,21.6013163 83.100275,21.5136935 C83.214224,21.4877603 83.2833792,21.2647741 83.3902554,21.1070138 C83.1116699,21.0042633 82.9157957,20.9317682 82.5723772,20.8048527 C82.7812181,20.5844204 82.9256189,20.39778 83.105776,20.2569155 C83.1910413,20.1903143 83.4360314,20.2388409 83.4517485,20.1875639 C83.5266012,19.9408055 83.5670727,19.6789194 83.5802358,19.4203733 C83.5875049,19.2791159 83.5169745,19.1337328 83.4733595,18.9573084 C83.300668,18.9459136 83.0566601,18.9298035 82.8049902,18.9131041 C83.0309234,18.0989587 83.5715914,17.9052456 84.603222,18.2724361 C84.7216896,18.0286248 84.8434971,17.7783301 84.9664833,17.5250884 C84.6666798,17.3233202 84.0959528,17.7857957 84.12778,17.0484676 C84.2906483,17.0920825 84.4175639,17.1260707 84.5444794,17.1600589 C84.6136346,17.0775442 84.6825933,16.9950295 84.7515521,16.9123183 C84.4796464,16.8136935 84.2077407,16.7152652 83.935835,16.6166405 C83.9965422,16.5466994 84.0572495,16.4765619 84.1179568,16.4066208 C84.2700196,16.4535756 84.422279,16.5005305 84.6264047,16.5637917 C85.1150098,15.4950295 85.614224,14.4523969 86.732888,13.8781336 C86.700275,13.8411984 86.6676621,13.8042633 86.6350491,13.7673281 L86.030334,13.7246955 C86.5336739,13.6009234 87.0859332,13.741002 87.4682515,13.1865815 C87.2326916,13.1661493 87.0454617,13.1500393 87.0293517,13.148664 C87.8321022,12.7997446 88.740943,12.4046562 89.7401572,11.9704715 C88.9643222,11.2889391 88.2391749,11.4527898 87.5484086,11.6954224 C86.8480157,11.9413949 86.184165,12.289725 85.4955599,12.5722397 C85.2348527,12.6791159 84.9499804,12.727053 84.6759136,12.8021022 C84.6704126,12.7834381 84.6649116,12.7647741 84.6596071,12.7463065 C85.1692338,12.4174263 85.679057,12.0885462 86.1890766,11.7598625 C86.1586248,11.689725 86.1283694,11.6197839 86.0979175,11.5498428 C85.8780747,11.589725 85.6254224,11.5734185 85.44389,11.6791159 C84.6291552,12.1537721 84.5588212,12.1918861 83.7947741,12.2087819 C84.0554813,12.0954224 84.3104912,11.984224 84.565501,11.873222 L84.5116699,11.689725 C83.7436935,11.8386444 82.9757171,11.9873674 82.0906483,12.1590766 C83.6878978,11.3288212 85.519332,11.7429666 86.9572495,10.6624165 C86.5411395,10.6235167 86.1250295,10.5848134 85.7157957,10.5466994 C85.7226719,10.5144794 85.7403536,10.4313752 85.770609,10.289332 C84.8326916,10.4944401 83.9397642,10.6402161 83.0778782,10.8920825 C82.2075442,11.1465029 81.3598035,11.4855992 80.5169745,11.8248919 C79.6548919,12.1720432 78.6953635,12.4186051 77.9914342,12.9775442 C77.2820039,13.541002 76.3943811,13.4975835 75.6955599,14.0186051 C74.9713949,14.5582908 74.1126523,14.9148723 73.3287623,15.3781336 C72.5448723,15.8413949 71.7704126,16.3221415 71.0104912,16.8237132 C70.2334774,17.3366798 69.468055,17.8690963 68.7179568,18.4209627 C67.9839686,18.9610413 67.2653045,19.5239096 66.5588212,20.0999411 C65.8698232,20.6616306 65.2049902,21.2525933 64.5293517,21.8305894 C65.2916306,21.881277 65.9818075,21.1046562 66.5798428,21.8213556 C66.4150098,22.5148723 66.271002,23.1278389 66.1234578,23.7402161 C65.9957564,24.2704715 65.9387819,24.8343222 65.713831,25.3199804 C65.4749312,25.8358939 65.0682515,26.2730255 64.7497839,26.7543615 C64.6678585,26.8783301 64.6417289,27.0394303 64.5900589,27.1834381 C64.7635363,27.1144794 64.946444,27.06222 65.1083301,26.9722397 C65.3026326,26.8641847 65.4792534,26.7243026 65.6633399,26.5979764 C65.6973281,26.6494499 65.7315128,26.7007269 65.7656974,26.7522004 C65.6214931,26.9398232 65.4772888,27.1276424 65.4321022,27.1863851 C65.5169745,27.6384479 65.5820039,27.9859921 65.632888,28.257112 C65.2415324,28.1172299 64.9486051,27.9846169 64.641336,27.9199804 C64.5468369,27.8999411 64.3389784,28.0502358 64.3181532,28.1504322 C64.2971316,28.2523969 64.414224,28.4484676 64.5205108,28.4993517 C64.8356385,28.6500393 65.1753242,28.7494499 65.5456582,28.8834381 C65.0763065,29.6408055 64.7155992,30.5260707 63.7108841,30.8932613 C63.7525344,30.9400196 63.7939882,30.9865815 63.8356385,31.0331434 C63.9882908,30.954165 64.1407466,30.8749902 64.308723,30.7879568 C64.2935953,30.9404126 64.2794499,31.0846169 64.2645187,31.2339293 C64.1470334,31.2441454 64.0281729,31.2667387 63.9104912,31.2628094 C63.4205108,31.2463065 62.5262083,32.1873674 62.7350491,32.5971906 C62.8941847,32.9097642 62.7425147,33.0101572 62.6181532,33.167721 C62.4224754,33.4160511 62.2155992,33.5586837 62.3169745,34.0068173 C62.4372102,34.5390373 62.2370138,35.143556 62.1702161,35.7698821 C62.46,35.5718468 62.6908448,35.4142829 62.9214931,35.2569155 C62.9598035,35.2967976 62.9983104,35.3366798 63.0366208,35.3767583 C62.7582318,35.6848134 62.4798428,35.9930648 62.2904519,36.202888 C62.2297446,36.5514145 62.0696267,36.8688998 62.1670727,37.0195874 C62.5275835,37.5773477 62.4163851,38.2227308 62.3627505,38.7512181 C62.3036149,39.3358939 62.8405501,39.3162475 62.9150098,39.6700786 C63.1124558,39.6101572 63.3108841,39.5543615 63.5063654,39.4889391 C63.640943,39.4439489 63.771002,39.3854028 63.9877014,39.2993517 C63.9157957,39.6103536 63.8643222,39.8323576 63.8022397,40.100334 C64.1401572,40.2665422 64.4822004,40.4349116 64.8275835,40.6048527 C64.9678585,40.2468959 65.054499,39.9580943 65.1902554,39.6946365 C65.3983104,39.2911002 65.6488016,38.9097642 65.8647151,38.5099607 C66.0613752,38.1457171 66.2525344,37.7720432 66.0104912,37.3079961 C66.8584283,37.4659528 66.719725,36.7590766 66.9617682,36.3675246 C67.1965422,36.2382515 67.4352456,36.0958153 67.5250295,35.8887426 C67.5963458,35.724499 67.4857367,35.481277 67.4491945,35.2262672 C67.7949705,35.1356974 68.3405501,35.0590766 67.7399607,34.3773477 C68.0038114,34.3533792 68.1822004,34.3372692 68.4026326,34.3174263 C68.4393713,33.9523969 68.4812181,33.6205697 68.5045972,33.2873674 C68.59222,32.0241061 68.6635363,30.759666 68.76,29.4971906 C68.9049902,27.6042633 69.0613752,25.7121218 69.2216896,23.8205697 C69.3134381,22.7374656 69.4024361,21.6533792 69.5307269,20.5742043 C69.630334,19.7374656 70.1603929,19.2779371 70.9763065,19.1549509 C71.72778,19.0417878 72.3517485,19.297387 72.7774853,19.9250884 C72.9967387,20.2482711 73.1395678,20.6248919 73.3044008,20.9828487 C74.189666,22.9052456 75.068055,24.8305894 75.9546955,26.7522004 C76.340943,27.5891356 76.740943,28.419391 77.179057,29.3465029 C78.2246365,28.6166405 79.1727701,27.9547544 80.2623576,27.1942436 L77.7617682,27.1942436 C77.7429077,27.1600589 77.6912377,27.0665422 77.6590177,27.0077996 C77.9517485,26.9239096 78.3930059,26.9217485 78.6012574,26.7005305 C78.7873084,26.5030845 78.7163851,26.0633988 78.7704126,25.6384479 C78.500668,25.6074067 78.2385855,25.6256778 78.0205108,25.5362868 C77.8586248,25.4700786 77.7539096,25.2643811 77.6236542,25.1207662 L77.7527308,25.0241061 C77.8961493,25.154558 78.0517485,25.4076031 78.1814145,25.394833 C78.9340668,25.3213556 79.1016503,25.8565226 79.3391749,26.3744008 C79.4757171,26.6718468 79.6653045,26.9800982 80.1144204,26.7561297 C80.2484086,26.689332 80.44389,26.7457171 80.7894695,26.7457171 C80.7130452,26.2854028 80.5458546,25.8411984 80.5979175,25.424499 C80.6454617,25.0453242 80.6560707,24.7584872 80.3146169,24.573222 C80.0150098,24.4107466 79.6851473,24.3042633 79.4038114,24.1873674 C79.4474263,24.14611 79.5747348,24.0252849 79.8226719,23.789725 L78.8100982,23.789725 C79.0049902,23.648664 79.219725,23.6294106 79.3800393,23.5260707 C79.4900589,23.4553438 79.524833,23.267721 79.5930059,23.1323576 L79.5930059,23.1323576 Z M162.223458,55.1030845 C160.903222,55.9747937 159.651945,56.8011198 158.400668,57.6276424 C158.350963,57.6602554 158.306758,57.7115324 158.252731,57.7258743 C156.960786,58.0669352 156.883969,58.9351081 156.916582,60.1368762 C157.331906,75.4578978 152.497132,88.8944401 142.1211,100.212318 C133.948016,109.127839 123.841925,114.756719 111.992613,117.176562 C103.761375,118.857701 95.5446758,118.64336 87.3804322,116.641002 C87.1945776,116.595619 87.0132417,116.530786 86.7099018,116.438644 C99.6482122,108.011729 111.406758,98.2679175 122.639175,87.7518075 C124.968448,92.7777407 127.26943,97.7425737 129.570216,102.707407 C129.609705,102.697387 129.649194,102.687171 129.68888,102.676955 C129.781022,101.440609 129.853517,100.202299 129.968841,98.9681139 C130.35057,94.8814735 130.604401,90.7755796 131.1822,86.7162475 C131.699293,83.0852063 132.828762,79.5740079 133.962358,76.0793124 C135.755678,70.5520039 138.267859,65.3335363 140.727976,60.0909037 C140.971591,59.5716503 141.211277,59.0504322 141.518939,58.3875639 C141.192809,58.5199804 140.985147,58.5969941 140.783772,58.6873674 C136.009312,60.8341257 131.278861,63.0804912 126.31835,64.7905108 C121.473556,66.4608448 116.571788,67.9115324 111.475128,68.5535756 C109.136621,68.8482711 106.77277,68.9494499 104.418153,69.1050491 C102.062554,69.2608448 99.7040079,69.3742043 97.3468369,69.5099607 C97.2159921,69.5174263 97.087112,69.5575049 96.7969352,69.6133006 C101.815599,72.010943 106.695167,74.3421807 111.574735,76.673222 C111.639371,76.748664 111.703811,76.8239096 111.768251,76.8993517 C111.574538,76.9954224 111.34389,77.0523969 111.19222,77.1934578 C105.071984,82.8871709 98.7497839,88.3433595 92.1743418,93.5068173 C85.6431041,98.6356974 78.8806287,103.417426 71.579057,107.402102 C71.3875049,107.506424 71.1672692,107.573811 71.003222,107.709961 C69.8079371,108.70112 68.7884872,108.412122 67.6985069,107.444145 C66.3981139,106.289528 64.9802358,105.267721 63.5440864,104.133536 C62.0963458,107.41055 60.3988998,110.580491 60.3627505,114.320766 C61.5100982,114.496208 62.5346562,114.27558 63.5503733,114.029018 C66.4812181,113.317819 69.2018468,112.07165 71.8641257,110.692672 C78.4556778,107.278919 84.5491945,103.089921 90.4890766,98.6655599 C98.9990963,92.3272495 107.016189,85.4056385 114.726405,78.1239096 C115.486326,77.405835 116.163733,76.6009234 116.902043,75.8121218 C114.311473,74.5657564 111.651356,73.2861886 108.871395,71.9488605 C118.124637,71.0413949 126.719528,68.2775442 135.166876,64.6197839 C131.479253,73.0134971 128.475128,81.4966012 127.387112,90.5869745 C126.150373,87.9386444 124.914028,85.2903143 123.649587,82.5830452 C123.473556,82.7335363 123.328566,82.8514145 123.190059,82.9765619 C118.244086,87.4468959 113.384754,92.0178193 108.333084,96.3653635 C100.763536,102.879902 92.8543026,108.96556 84.3843615,114.285599 C79.4751277,117.369096 74.449391,120.237859 68.9537132,122.177348 C66.1711984,123.159273 63.3338703,123.848468 60.3486051,123.770275 C54.9621611,123.629411 51.0973281,119.751611 50.9996857,114.362024 C50.9401572,111.067917 51.7482122,107.938841 53.0099018,104.946306 C54.0861297,102.394047 55.3745383,99.9303929 56.5990963,97.4423772 C56.784165,97.0665422 56.773556,96.8364833 56.5191356,96.5064244 C49.7900589,87.7745972 45.8973281,77.9178193 44.9935953,66.9305894 C44.7666798,64.1716503 44.9203143,61.3818664 44.8755206,58.6064244 C44.8717878,58.3799018 44.7480157,58.0358939 44.5770923,57.949057 C42.3187426,56.8013163 40.222279,55.4170334 38.2949705,53.7745972 C38.2704126,53.7535756 38.2238507,53.7584872 38.1018468,53.7347151 C38.1018468,53.9577014 38.1016503,54.1637917 38.1020432,54.3696857 C38.12778,76.5575049 38.1605894,98.7451277 38.1560707,120.933143 C38.1558743,121.899941 37.9696267,122.931768 37.5996857,123.82057 C36.7169745,125.941788 35.0672692,126.969882 32.7130452,126.862024 C30.5658939,126.763792 29.1686444,125.629214 28.4199214,123.737269 C28.0584283,122.823713 27.900668,121.77224 27.8981139,120.782456 C27.8647151,107.962024 27.8759136,95.1415914 27.8759136,82.3209627 L27.8759136,81.5186051 L23.5085265,81.5186051 L23.5085265,82.3085855 C23.5085265,95.1688998 23.5055796,108.029018 23.5128487,120.889332 C23.5136346,122.274204 23.203222,123.547092 22.4670727,124.735501 C20.6967387,127.593458 16.0122593,127.608585 14.2395678,124.722927 C13.6996857,123.844145 13.3360314,122.913497 13.2482122,121.886189 C13.2077407,121.412515 13.2034185,120.934912 13.2034185,120.459077 C13.2012574,97.3382515 13.2016503,74.2178193 13.2016503,51.0971906 L13.2016503,50.3492534 C13.1334774,50.3268566 13.0651081,50.3044597 12.9969352,50.2820629 C12.4240472,51.3356974 11.7792534,52.357112 11.2933988,53.4494499 C10.2254224,55.8508251 9.52168959,58.3675246 9.26903733,60.9903143 C8.89516699,64.8675246 9.07886051,68.6657564 10.8488016,72.2557367 C11.9346562,74.4580943 10.9772888,77.127053 8.77925344,78.2470923 C6.6146169,79.3498428 3.97218075,78.5429666 2.77257367,76.3830452 C1.41717092,73.9427701 0.660785855,71.2946365 0.31324165,68.5478782 C-0.500510806,62.1199804 0.237013752,55.8728291 2.93013752,49.9496464 C5.91108055,43.3940472 10.6154028,38.454165 17.2992927,35.6378585 C18.9205108,34.9547544 20.8036149,34.7765619 22.5880943,34.6296071 C24.6183497,34.46222 26.6733595,34.5710609 28.7171709,34.5952259 C30.4660904,34.6156582 32.065501,35.1594695 33.5521415,36.0728291 C35.9042043,37.5180157 37.7812181,39.4586837 39.4696267,41.6158546 C41.3321022,43.9954224 43.2898625,46.2895285 45.7908448,48.0449312 C45.9814145,48.1789194 46.178664,48.3036739 46.3757171,48.4345187 C51.2586248,31.1950295 61.5672692,18.5307859 77.8605894,11.0260707 C89.4106876,5.7062279 101.478664,4.79306483 113.891041,7.62724951 C101.112063,15.9771513 89.5289587,25.794833 78.2741454,36.1911002 C75.9678585,31.1466994 73.6759136,26.1333399 71.3837721,21.1199804 C71.3417289,21.1250884 71.2996857,21.1301965 71.2576424,21.135501 C71.2275835,21.4168369 71.189666,21.6975835 71.1686444,21.9795088 C70.87611,25.9174263 70.6252259,29.8588802 70.2835756,33.7924754 C69.984165,37.2402161 69.1621611,40.5934578 68.2271906,43.9182122 C66.4224754,50.3353045 63.8183497,56.4362868 60.9134381,62.4186051 C60.4466405,63.3799018 60.008723,64.3551473 59.4778782,65.4946365 C59.9315128,65.2964047 60.2405501,65.1592731 60.5509627,65.0256778 C64.6100982,63.278723 68.6289587,61.4298035 72.7389784,59.8119253 C77.857446,57.7969941 83.1417289,56.2767583 88.5973281,55.4924754 C91.1242436,55.1292141 93.6914342,55.035501 96.2431041,54.8555403 C98.6379961,54.6865815 101.036228,54.5661493 103.433084,54.4215521 C103.62169,54.4099607 103.808919,54.3763654 104.023654,54.2382515 C99.1163851,51.9009234 94.2093124,49.5635953 89.2366208,47.1950295 C90.2226719,46.2773477 91.1397642,45.4068173 92.0753242,44.5563261 C98.7301375,38.505442 105.619725,32.7392338 112.809705,27.3301965 C117.173752,24.0470923 121.681807,20.9840275 126.380039,18.2048527 C127.982004,17.2573084 129.658428,16.4360904 131.288487,15.5349116 C131.659804,15.3296071 131.924637,15.3818664 132.246444,15.6278389 C133.85332,16.8561297 135.474931,18.0653635 137.091041,19.2818664 C137.197917,19.36222 137.301454,19.4466994 137.535835,19.6305894 C138.279843,17.8097642 139.081611,16.0834381 139.68554,14.2903143 C140.11776,13.0072102 140.331906,11.6423772 140.551749,10.2991552 C140.672967,9.55848723 140.577682,9.53373281 139.834067,9.54375246 C137.541532,9.57499018 135.437407,10.3604519 133.360196,11.2089784 C128.971788,13.0017092 124.916582,15.4217485 120.937014,17.9653635 C112.325029,23.4696857 104.293595,29.7494499 96.6089194,36.4688998 C92.4429077,40.1115324 88.413831,43.910943 84.3214931,47.6378585 C84.2045972,47.7443418 84.0686444,47.83 83.8313163,48.0079961 C86.6256189,49.3457171 89.2865226,50.619391 91.9472299,51.8930648 C82.8099018,52.8529862 74.2433006,55.6773477 65.7377996,59.3168369 C67.687112,55.0667387 69.3159921,50.849057 70.638389,46.5178193 C71.9631434,42.1795088 73.000275,37.7777407 73.5537132,33.2241061 C74.7914342,35.9081925 76.0289587,38.592279 77.3075442,41.3649705 C77.5894695,41.0993517 77.8157957,40.8891356 78.0387819,40.675776 C86.6914342,32.3938507 95.7106876,24.5398232 105.325029,17.386778 C111.634263,12.6926719 118.136228,8.29070727 125.158232,4.71251473 C128.80558,2.85396857 132.55391,1.24139489 136.609705,0.481669941 C138.712849,0.0877603143 140.828173,-0.0450491159 142.928369,0.47891945 C147.166287,1.53609037 149.839764,5.00053045 149.956464,9.53412574 C150.025422,12.2107466 149.424244,14.7683104 148.580432,17.281277 C147.541729,20.3744008 146.127976,23.2995481 144.573752,26.1600589 C144.425226,26.4333399 144.321493,26.6337328 144.573163,26.94611 C149.418939,32.9573084 152.843497,39.7024951 154.945855,47.1254813 C154.966287,47.19778 154.996739,47.2669352 155.067662,47.4612377 C155.727191,46.8975835 156.397917,46.4311788 156.936621,45.8437525 C158.381022,44.2679175 159.81776,42.6799018 161.168841,41.0243026 C163.470216,38.2038703 164.979646,36.6846169 168.537407,34.7539686 C168.537407,34.2506287 168.524833,33.7353045 168.540747,33.2207662 C168.560196,32.5885462 168.915796,32.211336 169.544676,32.2097642 C173.355088,32.200334 177.165501,32.2005305 180.97611,32.2095678 C181.609509,32.2111395 181.963733,32.5826523 181.988094,33.2127112 C182.003222,33.6068173 181.990845,34.0021022 181.990845,34.3480747 C185.36668,35.5282318 188.318939,37.3231238 190.990255,39.5962083 C193.709705,41.9107466 195.89556,44.6494499 197.46,47.8671316 C199.433674,51.9266601 200.238978,56.2150688 199.893792,60.7127112 C199.810688,61.7946365 199.645658,62.8718468 199.485737,63.9465029 C199.426208,64.3445383 199.372967,64.7840275 198.809116,64.8683104 C198.704008,64.883831 198.608134,65.1718468 198.56334,65.3480747 C197.491631,69.5510216 195.517171,73.2863851 192.825619,76.676169 C191.506365,78.3378585 189.936228,79.2372692 187.691434,78.7852063 C187.727976,79.3848134 187.800472,79.9313752 187.787701,80.4759725 C187.749194,82.0964047 187.62778,83.7158546 187.626012,85.3358939 C187.611277,97.1641847 187.63053,108.992475 187.594971,120.82057 C187.59222,121.809371 187.42778,122.862809 187.057839,123.77224 C186.182986,125.921552 184.525619,126.966346 182.143104,126.864381 C180.222083,126.782456 178.551749,125.690314 177.826798,123.680098 C177.498114,122.769096 177.333084,121.748861 177.330727,120.777544 C177.2989,107.957112 177.309509,95.1364833 177.309509,82.3158546 L177.309509,81.5162475 L173.291238,81.5162475 L173.291238,82.3052456 C173.291238,95.1455206 173.288291,107.985992 173.295363,120.826267 C173.296149,122.03943 173.115992,123.204853 172.518153,124.269489 C171.594971,125.914283 170.245462,126.82666 168.287505,126.868703 C166.21776,126.913301 164.744479,126.04277 163.751749,124.27833 C163.162161,123.230393 162.971395,122.085599 162.967859,120.895619 C162.917367,104.760845 162.86334,88.6260707 162.811081,72.4914931 C162.809902,72.1011198 162.860196,71.7378585 162.411081,71.4740079 C162.242515,71.3749902 162.217957,70.941002 162.21776,70.659666 C162.211277,65.700334 162.218743,60.7408055 162.223458,55.7814735 C162.223654,55.5675246 162.223458,55.3533792 162.223458,55.1030845 L162.223458,55.1030845 Z" id="Fill-1" fill="#6DAC6E"></path>
        <path d="M25.6631434,29.6988016 C21.2820039,29.8294499 17.4578389,26.0255206 17.4766994,21.5783694 C17.4957564,17.0536149 21.1427112,13.3856385 25.6835756,13.391336 C30.1586248,13.3968369 33.8173674,17.0942829 33.8093124,21.598998 C33.8008644,26.2526326 29.7768959,29.8549902 25.6631434,29.6988016 M25.5843615,11.0103929 C19.7798428,11.0320039 15.0818075,15.7730648 15.1030255,21.5876031 C15.1244401,27.4404519 19.8434971,32.1221807 25.7026326,32.1037132 C31.500668,32.085442 36.2128487,27.334558 36.1904519,21.5292534 C36.1678585,15.6893713 31.4283694,10.9887819 25.5843615,11.0103929" id="Fill-3" fill="#6DAC6E"></path>
        <path d="M115.826916,59.6437721 C116.209823,58.8811002 116.820432,58.13611 116.549116,57.0148919 C117.156189,57.3665619 117.231434,57.1237328 117.234774,56.717053 C117.236149,56.5571316 117.346758,56.3856189 117.44165,56.2418075 C117.560118,56.0614538 117.779371,55.9247151 117.839293,55.7329666 C117.997053,55.2290373 118.368959,55.1579175 118.818664,55.1581139 C118.738703,56.2457367 119.90668,55.4858153 120.203536,56.1062475 C120.008251,56.2614538 119.80943,56.4196071 119.487819,56.6750098 C120.054224,56.731002 120.425147,56.8463261 120.314931,57.3991749 C120.310609,57.4198035 120.668369,57.5962279 120.774853,57.5408251 C121.287623,57.2750098 121.730845,56.8665619 122.375246,56.9054617 C122.45501,56.9103733 122.549312,56.6775639 122.686444,56.4854224 C122.147544,56.5412181 121.697053,56.7072299 121.337132,56.5915128 C120.971709,56.4740275 120.695678,56.0785462 120.371513,55.7966208 C121.648527,55.3227505 122.93222,54.8467191 124.215717,54.3702947 C124.244597,54.4294303 124.273477,54.4883694 124.302554,54.5475049 C124.072102,54.8693124 123.84165,55.1913163 123.611198,55.5133202 C123.523772,55.4844401 123.436346,55.4555599 123.348919,55.4266798 C123.489194,55.52 123.62947,55.6131238 123.736542,55.6844401 C123.588016,55.9846365 123.446758,56.2706876 123.277996,56.6121415 L122.769745,56.6121415 C123.059332,56.9260904 123.238507,57.1934774 123.483104,57.3700982 C123.968762,57.7207859 124.491159,58.0209823 124.997642,58.3431827 C125.457171,58.6353242 125.934578,58.9036935 126.369352,59.2290373 C126.782318,59.5378782 127.039489,60.365776 126.824754,60.7176424 C126.545776,61.1752063 126.115324,61.341611 125.555796,61.274224 C125.028291,61.2105697 124.47446,61.3221611 123.958153,61.2223576 C123.494892,61.1329666 123.067191,60.8608644 122.593124,60.6854224 C122.342043,60.552613 122.099607,60.3325737 121.837721,60.3060511 C121.362279,60.2581139 120.848134,60.2343418 120.400393,60.3683301 C119.881336,60.5239293 119.234971,60.5596857 118.975442,61.2021218 C118.958153,61.2451473 118.875049,61.2966208 118.831827,61.2891552 C118.024361,61.1500589 117.108448,61.433556 116.433006,60.8135167 C116.153242,60.5565422 116.054617,60.1025147 115.826916,59.6437721" id="Fill-5" fill="#6DAC6E"></path>
        <path d="M56.6131631,96.644165 C56.7709234,96.9058546 56.7571709,97.1211788 56.5990177,97.4422004 C55.3744597,99.9304126 54.0862475,102.394067 53.0100196,104.946326 C51.7481336,107.938861 50.9400786,111.067937 50.9998035,114.362043 C51.0972495,119.751631 54.9620825,123.629234 60.348723,123.770295 C63.3337917,123.848487 66.1711198,123.159293 68.9536346,122.177367 C74.4495088,120.237878 79.4750491,117.369116 84.3842829,114.285619 C92.854224,108.96558 100.763458,102.879921 108.333006,96.3653831 C113.384676,92.0178389 118.244204,87.4469155 123.18998,82.9765815 C123.328684,82.8514342 123.473477,82.733556 123.649509,82.5830648 C124.913949,85.290334 126.150491,87.9384676 127.38723,90.5869941 C128.475049,81.4964244 131.479371,73.0135167 135.166798,64.6198035 C126.71945,68.2775639 118.124558,71.0414145 108.871513,71.9488802 C111.651277,73.2860118 114.311395,74.565776 116.902161,75.8121415 C116.163851,76.6007466 115.486444,77.4058546 114.726326,78.1237328 C107.016306,85.4056582 98.9992141,92.3270727 90.4891945,98.6655796 C84.5491159,103.089941 78.4557957,107.278939 71.8640472,110.692888 C69.2019646,112.071473 66.4811395,113.317839 63.5504912,114.029037 C62.5345776,114.275599 61.5100196,114.496228 60.3624754,114.320786 C60.3990177,110.580511 62.0964637,107.41057 63.5440079,104.133556 C59.8237721,101.169116 57.1349705,97.4001572 56.6131631,96.644165" id="Fill-7" fill="#BBB6B4"></path>
        <path d="M189.956444,62.2943026 L198.809096,64.8683694 C198.809096,64.8683694 193.576876,81.1960707 187.691415,78.7850688 L188.459194,67.1404715 L189.956444,62.2943026 Z" id="Fill-9" fill="#BBB6B4"></path>
        <path d="M78.0388409,40.6757171 C77.8158546,40.8890766 77.5895285,41.0992927 77.3074067,41.3649116 C76.0290177,38.5924165 74.7912967,35.9081336 73.5537721,33.2240472 C73.000334,37.7776817 71.9630059,42.1796464 70.6384479,46.5177603 C69.3160511,50.848998 67.6871709,55.0666798 65.7378585,59.316778 C74.2433595,55.6772888 82.8099607,52.8529273 91.9470923,51.8930059 C89.2863851,50.619332 86.6258743,49.3456582 83.8313752,48.0079371 C84.0685069,47.8299411 84.2044597,47.7442829 84.3215521,47.6377996 C88.41389,43.9108841 92.4427701,40.1114735 96.6087819,36.4688409 C104.293654,29.749391 112.325088,23.4696267 120.937073,17.9653045 C124.91664,15.4218861 128.971847,13.0018468 133.360059,11.2091159 C135.437466,10.3603929 137.541591,9.57493124 139.834126,9.54388998 C140.577741,9.53367387 140.673026,9.55842829 140.551807,10.2990963 C140.331965,11.6425147 140.117819,13.0071513 139.685599,14.2902554 C139.085403,16.0719843 138.290118,17.7880943 137.550236,19.5963458 C141.725088,22.8051866 144.007603,26.0851473 144.479312,26.800668 C144.359862,26.5664833 144.449646,26.3882908 144.573615,26.1601965 C146.128035,23.2994892 147.541788,20.3743418 148.580491,17.2812181 C149.424303,14.7682515 150.025481,12.2106876 149.956523,9.5340668 C149.839627,5.00066798 147.166346,1.53603143 142.928428,0.478860511 C140.828232,-0.045108055 138.712908,0.0877013752 136.609568,0.481611002 C132.553969,1.24133595 128.805639,2.85390963 125.158094,4.7124558 C118.13609,8.29064833 111.634126,12.692613 105.325088,17.3867191 C95.7105501,24.5399607 86.6914931,32.3939882 78.0388409,40.6757171" id="Fill-11" fill="#BBB6B4"></path>
        <path d="M183.848035,26.2608841 C184.458251,23.9895678 184.731729,20.9681532 183.514833,17.7577407 C183.226621,17.0007662 182.936248,15.9968369 182.703831,15.1213949 C182.260806,15.488389 181.789293,15.8400589 181.283988,16.1575442 C178.255894,18.0600982 172.293418,19.701945 170.538212,20.1597053 L167.98222,20.8265029 L168.775147,18.691336 C167.931532,19.5699214 167.122299,20.812554 166.74666,22.5215914 C166.46002,23.8339686 166.733104,25.1654028 167.012672,26.0514538 L167.377701,27.2086248 C169.324853,29.3294499 172.115815,30.6606876 175.221513,30.6606876 C178.769253,30.6606876 181.910904,28.9266994 183.848035,26.2608841" id="Fill-13" fill="#BBB6B4"></path>
        <path d="M189.430943,15.799666 C188.864538,13.3794303 187.561591,11.489057 186.687917,10.4311002 C186.238998,11.1774656 185.271022,12.6468173 183.85275,14.0737328 C184.094597,15.032279 184.455501,16.3633202 184.800098,17.2684283 C187.018369,23.1202947 184.714833,28.4155796 183.798919,30.1599804 C185.798919,29.2517289 191.742534,25.6607662 189.430943,15.799666" id="Fill-15" fill="#6DAC6E"></path>
        <path d="M185.710786,9.37555992 C185.135344,8.70424361 181.993301,5.37831041 176.254401,5.37831041 C174.595462,5.37831041 172.840452,5.65787819 171.043006,6.20522593 C165.663635,7.84707269 162.441631,11.8335167 162.420216,16.8704519 C162.404303,21.5121022 164.468153,24.8741847 165.700963,26.4653438 C165.365599,25.402279 165.054008,23.8260511 165.403124,22.2282122 C166.518644,17.1525737 170.947328,15.5680943 170.995265,15.5521807 L171.469332,15.3871513 L170.190943,18.8291945 C171.83947,18.3991356 177.698016,16.7865619 180.552436,14.9930452 C183.492515,13.1462868 185.330039,10.0614145 185.710786,9.37555992" id="Fill-17" fill="#6DAC6E"></path>
        <path d="M164.614165,27.3076621 C163.356208,25.6844794 161.300806,22.3640472 161.067014,17.7817289 C160.901591,18.7178782 160.803949,19.7827112 160.803949,20.9980354 C160.803949,26.9347741 164.640884,29.3738703 166.934204,30.3011788 L164.614165,27.3076621 Z" id="Fill-19" fill="#6DAC6E"></path>
        <path d="M8.80180747,74.6707466 C8.58707269,75.4860707 8.05937132,76.0367583 7.24935167,76.2369548 C6.34031434,76.4613163 5.45485265,76.1074853 4.98275049,75.3188802 C4.00671906,73.6886248 3.40220039,71.9049312 3.02793713,70.0524754 C2.25485265,66.2269352 2.24483301,62.3894106 2.87233792,58.535776 C3.19198428,56.5727112 3.69787819,54.671336 4.3886444,52.7530648 C5.59984283,53.370943 6.78392927,53.9622986 7.94777996,54.5907859 C8.05249509,54.6475639 8.08982318,54.9605305 8.05131631,55.1300786 C7.72243615,56.5770334 7.30691552,58.0068959 7.03736739,59.4640668 C6.63559921,61.6345972 6.59021611,63.8328291 6.76408644,66.0342043 C6.94640472,68.3400982 7.41870334,70.5795874 8.36565815,72.6970727 C8.65151277,73.3363654 8.99375246,73.9424558 8.80180747,74.6707466 M46.3756778,48.4345972 C46.1788212,48.3037525 45.9815717,48.1788016 45.790609,48.0450098 C43.2898232,46.2896071 41.3320629,43.9953045 39.4695874,41.6157367 C37.7811788,39.4587623 35.904165,37.5180943 33.5521022,36.0729077 C32.0656582,35.1593517 30.4660511,34.6157367 28.7171316,34.5951081 C26.6733202,34.5711395 24.6185069,34.4622986 22.588055,34.6294892 C20.8035756,34.7766405 18.9204715,34.954833 17.2994499,35.6377407 C10.6153635,38.4542436 5.91104126,43.3939293 2.93009823,49.949725 C0.23697446,55.8727112 -0.500550098,62.1198625 0.313202358,68.5479568 C0.660746562,71.2945187 1.41732809,73.9428487 2.77273084,76.3831238 C3.97214145,78.5430452 6.6145776,79.349725 8.77921415,78.2469745 C10.9772495,77.1271316 11.9346169,74.4581729 10.8487623,72.2558153 C9.07882122,68.665835 8.89532417,64.8674067 9.26899804,60.9901965 C9.52165029,58.3676031 10.2255796,55.8509037 11.2933595,53.4495285 C11.7792141,52.3571906 12.4240079,51.335776 12.9968959,50.281945 C13.0650688,50.3043418 13.1334381,50.3267387 13.201611,50.3491356 L13.201611,51.0972692 C13.201611,74.2177014 13.2014145,97.3383301 13.2033792,120.458959 C13.2033792,120.934794 13.2077014,121.412593 13.2481729,121.886071 C13.3359921,122.913576 13.6996464,123.844224 14.2395285,124.723006 C16.0124165,127.608468 20.6966994,127.593536 22.4672299,124.735383 C23.2033792,123.546974 23.5135953,122.274283 23.5128094,120.889411 C23.5055403,108.029096 23.5084872,95.1689784 23.5084872,82.308664 L23.5084872,81.5184872 L27.8758743,81.5184872 L27.8758743,82.3208448 C27.8758743,95.1414735 27.8646758,107.961906 27.8980747,120.782534 C27.9006287,121.772122 28.058389,122.823792 28.4198821,123.737348 C29.1686051,125.629293 30.5658546,126.763674 32.7132024,126.861906 C35.0672299,126.969764 36.7169352,125.941866 37.5996464,123.820648 C37.9695874,122.931454 38.155835,121.899823 38.1560314,120.933222 C38.1605501,98.7452063 38.1277407,76.5575835 38.1020039,54.3697642 C38.101611,54.1636739 38.1018075,53.95778 38.1018075,53.7347937 C38.2238114,53.7585658 38.2705697,53.7534578 38.2951277,53.7744794 C40.2224361,55.417112 42.3187033,56.8011984 44.577053,57.9491356 C44.7479764,58.0359725 44.871945,58.3797839 44.8754813,58.6065029 C44.8754813,58.6065029 44.7104519,53.5693713 46.3756778,48.4345972" id="Fill-21" fill="#6DAC6E"></path>
    </g>
</svg>
