<svg width="200px" height="115px" viewBox="70 0 200 115" version="1.1" xmlns="http://www.w3.org/2000/svg" xmlns:xlink="http://www.w3.org/1999/xlink">
    <g id="plant" stroke="none" stroke-width="1" fill="none" fill-rule="evenodd" transform="translate(70.000000, 0.000000)">
        <path d="M101.477131,37.3890717 C96.5291983,36.5532911 91.4838819,36.1277215 86.3877637,36.1277215 C74.7050633,36.1277215 63.3701266,38.3276371 52.6966245,42.66173 C42.3918143,46.8498312 33.1361181,52.8434177 25.1860759,60.4783544 C17.2379747,68.1150633 10.998481,77.0060338 6.6385654,86.9066245 C2.82312236,95.5740506 0.595105485,104.709916 0,114.112194 L6.13687764,114.112194 C6.72329114,105.501308 8.78447257,97.1337131 12.2794093,89.194135 C16.3295359,79.9964979 22.1299578,71.7335443 29.5174684,64.637173 C36.9048945,57.5390295 45.5068354,51.9689873 55.0837131,48.0766667 C64.9951055,44.051097 75.5280169,42.0081435 86.3897046,42.0081435 C90.0380591,42.0081435 93.6583122,42.2427426 97.2306329,42.7052743 C98.7338397,40.9610549 100.152236,39.1856962 101.477131,37.3890717" id="Fill-1" fill="#BBB6B4"></path>
        <path d="M74.0931646,59.5152827 C74.1120675,59.4632152 74.1305485,59.4110633 74.1503797,59.3593333 C74.9555274,57.2571392 76.349789,55.4896287 78.1824473,54.2476878 C79.961519,53.0422025 82.0365401,52.4049873 84.1833755,52.4049873 C85.5356118,52.4049873 86.881519,52.6657468 88.147173,53.1670127 C88.8849789,52.649038 89.68,52.2309789 90.5136709,51.9164641 C90.3612658,51.4754515 90.3166245,50.9987426 90.3918143,50.5271814 C90.4596624,50.1016962 90.6220253,49.7027932 90.8602532,49.3557046 C89.3753586,49.268616 87.8847257,49.2231308 86.3897046,49.2231308 C67.2510549,49.2231308 49.155865,56.3176456 35.4395781,69.1995021 C22.6075949,81.2514852 14.9556962,97.0914852 13.6672574,114.112245 L23.2228692,114.112245 C23.7796624,107.711738 25.3727426,101.485578 27.9799156,95.5656624 C31.172827,88.3141857 35.7437131,81.8020338 41.5650633,76.2081941 C47.3883544,70.6144388 54.1676793,66.221865 61.7167089,63.1584051 C65.7232911,61.5299662 69.8596624,60.31427 74.0931646,59.5152827" id="Fill-3" fill="#6DAC6E"></path>
        <path d="M62.2759578,95.9308017 C61.0162954,95.0633755 59.9741013,93.9457384 59.1984895,92.6459916 C53.0184895,98.4693671 49.0892068,105.981266 47.9156203,114.112236 L54.1019494,114.112236 C55.2646498,107.305738 58.6819494,101.265823 63.5828776,96.6982278 C63.1322447,96.4748523 62.6952827,96.2195781 62.2759578,95.9308017" id="Fill-6" fill="#6DAC6E"></path>
        <path d="M59.2889283,81.547865 C58.9949198,81.1843207 58.7258059,80.8045738 58.4825992,80.4092996 C57.7474937,79.2149536 57.2637806,77.9081181 57.0447932,76.5249958 C56.8932321,75.567443 56.8766076,74.5884557 56.9868186,73.6253333 C53.6009958,75.6482025 50.4178734,78.0336878 47.4928945,80.7614515 C37.8832743,89.7207764 32.0229367,101.456051 30.7652996,114.112253 L40.3435274,114.112253 C40.8452152,109.919511 41.9595612,105.838245 43.6766076,101.939089 C46.0123882,96.639173 49.3535696,91.8760506 53.6127257,87.7847426 C55.0545823,86.40027 56.576692,85.1168101 58.1733165,83.9371477 C58.4425992,83.0925063 58.8171983,82.2905654 59.2889283,81.547865" id="Fill-8" fill="#BBB6B4"></path>
        <path d="M152.430793,95.5325485 L152.430793,100.334489 C154.381932,100.884363 156.339907,101.413561 158.302861,101.928329 C156.280582,99.8445316 154.325477,97.7110295 152.430793,95.5325485" id="Fill-11" fill="#6DAC6E"></path>
        <path d="M152.430793,103.31443 L152.430793,106.331814 L154.934759,104.001181 C154.079738,103.770211 153.245308,103.541519 152.430793,103.31443" id="Fill-13" fill="#6DAC6E"></path>
        <path d="M182.060422,105.867266 L180.457975,104.265831 C180.060506,103.850726 179.768608,103.34811 179.768608,102.701021 C179.768608,101.644903 180.623966,100.790979 181.678565,100.790979 C181.861688,100.790979 182.037553,100.817561 182.204473,100.865156 C181.503629,100.562709 180.717637,100.41292 179.991561,100.420093 L179.987257,100.420093 C175.135865,100.409122 171.777046,96.528616 171.753249,91.8351139 C171.739409,89.351654 171.746582,86.868616 171.75038,84.3855781 L163.232489,84.3855781 C158.460675,84.3855781 154.411983,87.4799241 152.982532,91.7715696 C155.375781,94.6080253 157.832068,97.323384 160.361941,99.9302194 C161.258734,100.854354 161.430042,102.262878 160.780675,103.37503 C160.257553,104.271063 159.305063,104.797814 158.303122,104.797814 C158.061519,104.797814 157.817046,104.767181 157.575021,104.703722 C156.701772,104.474692 155.851392,104.248447 155.020338,104.024228 L155.020338,110.913173 C155.020338,112.67908 156.452996,114.112245 158.219409,114.112245 C159.987257,114.112245 161.419409,112.678658 161.419409,110.913173 L161.419409,105.987097 C161.479325,104.582962 162.640506,103.458911 164.061266,103.458911 C165.481097,103.458911 166.671224,104.582962 166.730211,105.987097 L166.730211,110.912667 C166.730211,112.678658 168.163291,114.111738 169.929705,114.111738 C171.697637,114.111738 173.129283,112.678152 173.129283,110.912667 L173.132152,104.955283 L175.63038,107.799165 L174.777384,108.649797 C173.529198,109.900852 173.529198,111.925494 174.777384,113.174608 C176.02692,114.424143 178.052489,114.424143 179.303038,113.174608 L182.060422,110.392498 C183.310464,109.141443 183.310464,107.11638 182.060422,105.867266" id="Fill-15" fill="#BBB6B4"></path>
        <path d="M133.088321,68.6396624 C137.963679,70.304557 142.864945,71.8088608 147.854228,73.0390717 C140.174903,65.402616 133.74427,56.8259072 128.208911,47.5362869 C132.103679,48.8978059 136.027646,50.1094515 140.008827,51.1302954 C140.042245,51.0874262 140.075747,51.044557 140.109165,51.0016878 C139.992793,50.9272574 139.860557,50.8693671 139.762582,50.7756962 C139.102076,50.1439662 138.434481,49.5185654 137.795409,48.8655696 C132.45465,43.4079325 127.922835,37.3367932 124.108996,30.7283544 C121.671105,26.504135 119.56773,22.1243882 118.101992,17.4579747 C117.443595,15.3619409 116.927899,13.2345148 116.676422,11.042616 C116.563342,11.5652321 116.490093,12.0891139 116.392709,12.6084388 C115.552456,17.0912236 114.001992,21.336962 112.031696,25.4319831 C107.439122,34.9772152 101.18427,43.3202532 93.6402194,50.7219409 C93.5268861,50.8331646 93.3646076,50.8945992 93.2251983,50.9792405 C93.2683207,51.0294515 93.3113586,51.0796624 93.354481,51.1298734 C97.3363376,50.1108861 101.25946,48.8972996 105.119882,47.4760338 C105.150684,47.5114768 105.181485,47.5468354 105.212371,47.5822785 C103.913131,49.6254008 102.61389,51.6686076 101.281738,53.7636287 C101.353131,53.8121519 101.438785,53.8464979 101.490684,53.9089451 C102.178363,54.7353586 102.926295,55.5213502 103.530008,56.4057384 C104.399966,57.6800844 104.729249,59.1718987 104.990177,60.6738397 C105.01811,60.8347679 105.112118,61.0411814 105.240557,61.118903 C106.550852,61.9115612 107.74562,62.8286076 108.570599,64.1086076 C109.415494,63.9422785 110.206295,63.6965401 111.009586,63.6449789 C111.290768,63.6269198 111.569165,63.6178059 111.845451,63.6178059 C114.214565,63.6178903 116.40157,64.2892827 118.370937,65.7492827 C121.275916,67.9029536 122.631949,70.8422785 122.687983,74.3767932 C122.722414,76.5492827 122.08638,78.5831224 120.833046,80.3956962 C120.755494,80.5079325 120.713975,80.7066667 120.756591,80.8303797 C121.038363,81.648692 121.401148,82.4421097 121.638278,83.2719831 C122.475916,86.2027848 122.046633,89.0096203 120.468152,91.5684388 C118.269586,95.1323207 114.959122,96.70827 110.857097,96.70827 C110.778785,96.70827 110.700051,96.7076793 110.621148,96.7065823 C110.618532,96.7064979 110.616,96.7064979 110.613384,96.7064979 C110.443089,96.7064979 110.25119,96.7872574 110.105283,96.8835443 C109.25254,97.4463291 108.42908,98.0562869 107.554903,98.5823629 C107.267308,98.755443 107.16292,98.8946835 107.163595,99.2162869 C107.173131,103.49173 107.174734,107.767173 107.161485,112.042532 C107.160388,112.413502 107.26157,112.578397 107.628574,112.68903 C109.972203,113.395274 112.368996,113.770042 114.808236,113.884895 C115.395409,113.912489 115.980641,113.926751 116.564608,113.926751 C119.656084,113.926751 122.700895,113.526582 125.683595,112.590633 C126.096084,112.461181 126.208996,112.270549 126.208152,111.849705 C126.194143,105.014684 126.198194,98.1795781 126.198194,91.3444726 L126.198194,90.770211 C136.527814,95.7400844 147.337266,99.0524895 158.30292,101.928354 C148.528996,91.856962 140.300979,80.6444726 133.088321,68.6396624" id="Fill-18" fill="#6DAC6E"></path>
        <path d="M92.4812068,96.8151646 C92.3259325,95.8187932 92.1792658,94.9059662 92.0502363,93.990692 C92.040616,93.9224219 92.1444135,93.7857131 92.2182532,93.7658819 C93.4444979,93.4368523 94.5368186,92.8587089 95.4925992,92.0119578 C95.8664388,92.6315359 96.2257637,93.2271477 96.6184219,93.877865 C95.2741181,94.8322954 93.9168186,95.7959241 92.4812068,96.8151646 M87.7185063,96.8441941 C86.2110802,95.7776962 84.7539494,94.7468101 83.3284641,93.7382869 C83.6154684,92.8908608 83.8910802,92.0771055 84.1845823,91.2103544 C85.2337806,92.4859662 86.5929367,93.2970211 88.230827,93.7738987 C88.0596878,94.7996371 87.8948776,95.7874008 87.7185063,96.8441941 M116.702473,91.580903 C119.189139,89.2396371 119.830321,85.4619156 118.236481,82.4430127 C117.855468,81.7214093 117.31108,81.0860506 116.83935,80.4073165 C120.558759,77.3436878 120.319181,72.665038 118.382473,69.9159241 C117.26357,68.327654 115.746354,67.2685823 113.868633,66.7930549 C113.188886,66.620903 112.522641,66.536346 111.870152,66.536346 C110.287451,66.536346 108.786861,67.0344051 107.381038,67.9890042 C105.695468,64.758962 105.532937,64.6049536 102.04146,62.919384 C102.064414,62.7036034 102.106017,62.4821688 102.108802,62.2602278 C102.148886,59.1263038 100.857916,56.706135 98.1355527,55.1387932 C96.9215443,54.4398903 95.5900675,54.1009873 94.2686329,54.1009873 C92.3003629,54.1009873 90.3548776,54.8532236 88.8562278,56.2881603 C88.723654,56.4150802 88.6192658,56.477443 88.5017131,56.477443 C88.4117553,56.477443 88.3141181,56.440903 88.1903207,56.3688354 C86.9104051,55.6240253 85.5325148,55.2742363 84.1834008,55.2742363 C81.045173,55.2742363 78.0623882,57.1670633 76.8298143,60.3854599 C76.4533586,61.3684135 76.3139494,62.3940675 76.3804473,63.4679072 C73.9721772,64.1700169 72.259519,65.6616624 71.2295612,67.9206498 C69.9713333,67.3218312 68.7533586,67.069173 67.6147932,67.069173 C64.5707426,67.0693418 62.0961435,68.8760928 60.9521772,70.7057975 C59.0736118,73.7103544 59.1939494,78.4636034 63.2747932,81.3827595 C63.0829789,81.5336456 62.8894768,81.6566835 62.7310802,81.814827 C60.5863544,83.9567679 59.9998565,87.1436034 61.063654,89.9407342 C62.2147089,92.9671477 65.079519,94.9248692 68.2796034,94.9248692 C68.5397722,94.9248692 68.802557,94.9118734 69.0664388,94.8854599 C69.1796034,94.8741519 69.2861013,94.8684979 69.3870295,94.8684979 C70.0466076,94.8685823 70.4685485,95.1101013 70.9511646,95.59373 C72.4522616,97.0982025 74.2852574,97.7760084 76.3483797,97.7760084 C76.5434008,97.7760084 76.7407004,97.7699325 76.9396878,97.757865 C78.029308,97.6922954 79.0607004,97.3875696 80.0325992,96.9134768 C80.0847511,96.958962 80.1224726,96.9817468 80.1467764,97.0144895 C81.4589283,98.786135 82.7731899,100.556177 84.0733586,102.336599 C84.1525148,102.445038 84.1721772,102.652042 84.1305738,102.785376 C83.3948776,105.143603 82.6460169,107.497781 81.8984219,109.852295 C81.6320928,110.691114 81.3615443,111.528582 81.0952996,112.359384 C82.9337806,113.270186 86.8624726,113.729932 90.7098987,113.729932 C94.3856793,113.729932 97.9872827,113.310101 99.6192658,112.463013 C99.2668608,111.285122 98.9257637,110.100481 98.5574937,108.924363 C97.8696456,106.727823 97.1695612,104.53508 96.4643291,102.344025 C96.3737806,102.062675 96.4074515,101.85238 96.5885485,101.61162 C97.7958903,100.006388 98.9942025,98.3942363 100.178591,96.7720422 C100.324076,96.5728861 100.454456,96.4863038 100.650489,96.4863038 C100.715722,96.4863038 100.788295,96.4959241 100.87108,96.5141519 C101.57108,96.6684979 102.245511,96.7452911 102.894962,96.7452911 C105.216228,96.7452911 107.214287,95.7629283 108.88146,93.8263038 C109.045679,93.6355865 109.180447,93.5447004 109.385511,93.5447004 C109.444835,93.5447004 109.509983,93.5522954 109.583485,93.5673165 C110.206776,93.6944895 110.813274,93.7584557 111.402726,93.7584557 C113.372852,93.7584557 115.149561,93.043097 116.702473,91.580903" id="Fill-20" fill="#6DAC6E"></path>
        <path d="M193.251131,49.9620422 C193.097544,49.9542785 192.943958,49.9395949 192.790287,49.9395949 C183.817713,49.9384979 174.845055,49.9386667 165.872481,49.9386667 L165.316954,49.9386667 C165.216194,50.5125907 165.14016,51.0542785 165.02438,51.5873586 C164.318388,54.8375696 162.74919,57.6509873 160.6167,60.1651646 C157.449443,63.8992574 153.500667,66.5482025 149.019316,68.4475274 C148.722439,68.5733502 148.433831,68.7187511 148.023789,68.9098903 C146.308515,67.0049958 144.557629,65.0605232 142.727333,63.0279494 C143.329105,62.6077806 143.818641,62.1817046 144.378726,61.8921688 C145.588684,61.2665992 146.854422,60.7487089 148.062186,60.1194262 C150.994844,58.5914093 153.544717,56.5943629 155.465392,53.8638987 C156.222945,52.7869367 156.816363,51.6267679 157.155013,50.3465992 C157.183283,50.2395105 157.202523,50.1301435 157.243114,49.9423797 C157.036363,49.9423797 156.86362,49.942211 156.690793,49.9424641 C152.261004,49.948962 147.831215,49.9515781 143.401511,49.9706498 C143.09611,49.9719156 142.958473,49.8483713 142.765983,49.6347004 C142.072819,48.8651646 141.327333,48.1430549 140.610034,47.3949536 C139.580498,46.3211983 138.554675,45.2439831 137.535013,44.1610295 C137.114253,43.7140253 136.713747,43.2481181 136.254338,42.7353755 C140.904211,38.780692 146.30303,36.5450802 152.110203,35.2318312 C152.110203,34.7696371 152.081004,34.3357975 152.115772,33.9071899 C152.213747,32.6977384 152.746405,31.6747848 153.529527,30.7700591 C156.487755,27.3530127 162.810371,26.5855865 166.474591,29.2320844 C167.034084,29.6363038 167.488093,30.1949536 167.954928,30.7145316 C168.115688,30.893519 168.225899,30.9633924 168.472903,30.9281181 C170.743789,30.6041519 172.961257,30.7700591 175.083283,31.7129283 C175.875097,32.0647426 176.598051,32.5234768 177.18303,33.1692152 C178.146489,34.2327595 178.469865,35.4214515 177.837882,36.7794262 C177.815603,36.8271899 177.808093,36.8817046 177.790118,36.9460928 C178.665646,37.3249114 179.5367,37.676557 180.386574,38.0736034 C184.346574,39.923308 187.904717,42.3314093 190.642439,45.7868523 C191.552734,46.9357975 192.249612,48.2537722 193.04497,49.4939409 C193.110371,49.5958819 193.18227,49.6936034 193.251131,49.7932658 L193.251131,49.9620422 Z" id="Fill-22" fill="#6DAC6E"></path>
        <path d="M149.876903,87.6923882 C146.355384,83.3079156 143.122388,78.7837806 140.107198,74.0445401 C140.619772,74.1870717 141.132515,74.329097 141.645004,74.472135 C143.035637,74.8604895 144.424498,75.2555949 145.818422,75.6318819 C146.068549,75.6993924 146.128127,75.8184641 146.152684,76.0646245 C146.314203,77.6858059 146.497662,79.3047932 146.678253,80.9240338 C146.694624,81.070616 146.741376,81.2137384 146.792008,81.4384641 C146.898591,81.2537384 146.968633,81.1386329 147.032852,81.0203207 C148.767536,77.8262278 151.210658,75.4308692 154.704667,74.2246245 C156.125173,73.7341603 157.593021,73.4976203 159.092515,73.4718819 C161.174203,73.4361857 163.254287,73.3917131 165.309055,73.0050464 C166.542304,72.7728945 167.753021,72.4647089 168.874962,71.8815021 C169.15589,71.7355105 169.420447,71.5581266 169.692515,71.3950886 C169.683654,71.3584641 169.674878,71.3219241 169.666017,71.2852996 L155.884835,71.2852996 C156.030658,70.9907004 156.124245,70.7767764 156.238675,70.5745823 C157.582641,68.2004895 159.618253,66.57973 161.995637,65.3507004 C162.754962,64.958211 163.568633,64.6719662 164.345679,64.3117131 C164.543316,64.2200675 164.751586,64.0641181 164.859772,63.8813333 C165.426861,62.923443 166.237072,62.2442869 167.24146,61.8139916 C169.442051,60.8711224 171.64146,60.8998987 173.812852,61.9284219 C174.077916,62.0539916 174.374456,62.1807426 174.561629,62.3912911 C175.201207,63.1107848 176.055975,63.2209958 176.928464,63.386903 C178.082135,63.6062278 179.168295,63.7794768 180.374456,63.4323038 C181.736059,63.0404051 183.117409,63.3850464 184.304835,64.2229367 C185.223992,64.8715443 185.760954,65.7286751 185.619603,66.9168608 C185.60492,67.0404051 185.733696,67.2188017 185.845173,67.3139072 C186.924076,68.2340759 187.862135,69.2713755 188.562895,70.5112068 C188.686692,70.7301941 188.79665,70.9571139 188.949646,71.250616 C188.734118,71.2601519 188.575046,71.2734008 188.41589,71.2734008 C184.309899,71.2744979 180.203823,71.2791392 176.097831,71.266481 C175.708127,71.2652996 175.527789,71.3473249 175.405932,71.7642025 C174.882641,73.5542447 173.674034,74.8220084 172.145342,75.8120506 C170.18146,77.083865 167.981882,77.7375359 165.698,78.0349198 C163.723485,78.2920506 161.723823,78.4641181 159.734287,78.4737384 C155.72492,78.4933165 152.923907,80.3164388 151.243063,83.889097 C150.731671,84.9761013 150.408802,86.1518819 150.001207,87.2875781 C149.959772,87.4030211 149.928802,87.5221772 149.876903,87.6923882" id="Fill-24" fill="#6DAC6E"></path>
        <path d="M133.867401,97.4120169 C134.958962,97.8035781 136.023688,98.1898228 137.091451,98.5675443 C138.372464,99.0207089 139.648667,99.4890633 140.940228,99.9103291 C143.018034,100.588051 145.107063,101.231257 147.190523,101.891848 C148.098287,102.179612 148.99989,102.487882 149.913139,102.756743 C150.152211,102.827207 150.214658,102.930414 150.228245,103.159105 C150.356093,105.306363 150.494996,107.45303 150.630186,109.599865 C150.677949,110.357586 150.692211,111.119274 150.782506,111.871848 C150.845882,112.400793 150.634405,112.736911 150.186388,112.902734 C149.503772,113.155224 148.81297,113.428726 148.101241,113.552017 C143.752211,114.305772 139.400481,114.327882 135.064785,113.441468 C134.480397,113.321975 133.917105,113.075561 133.362169,112.844169 C132.975502,112.682903 132.843772,112.368051 132.875333,111.920624 C133.206051,107.236489 133.51584,102.550835 133.831705,97.8656878 C133.841072,97.727038 133.853392,97.588557 133.867401,97.4120169" id="Fill-26" fill="#6DAC6E"></path>
        <path d="M17.9916371,32.1117468 C17.9916371,33.2758819 17.0218481,34.2249114 15.8331561,34.2249114 C14.637038,34.2249114 13.6672489,33.2758819 13.6672489,32.1117468 C13.6672489,30.9444895 15.8331561,27.6457553 15.8331561,27.6457553 C15.8331561,27.6457553 17.9916371,30.9438987 17.9916371,32.1117468" id="Fill-29" fill="#6DAC6E"></path>
        <path d="M80.049038,17.1478903 C80.049038,18.3120253 79.0791646,19.2610549 77.8904726,19.2610549 C76.6944388,19.2610549 75.7246498,18.3120253 75.7246498,17.1478903 C75.7246498,15.9806329 77.8904726,12.6818987 77.8904726,12.6818987 C77.8904726,12.6818987 80.049038,15.9800422 80.049038,17.1478903" id="Fill-31" fill="#6DAC6E"></path>
        <path d="M95.3874008,28.8221519 C95.3874008,29.9862869 94.4175274,30.9353165 93.2288354,30.9353165 C92.0328017,30.9353165 91.0630127,29.9862869 91.0630127,28.8221519 C91.0630127,27.6548945 93.2288354,24.3561603 93.2288354,24.3561603 C93.2288354,24.3561603 95.3874008,27.6543038 95.3874008,28.8221519" id="Fill-33" fill="#6DAC6E"></path>
        <path d="M97.5496034,9.98252321 C97.5496034,11.1466582 96.57973,12.0956878 95.391038,12.0956878 C94.1950042,12.0956878 93.2252152,11.1466582 93.2252152,9.98252321 C93.2252152,8.81526582 95.391038,5.51653165 95.391038,5.51653165 C95.391038,5.51653165 97.5496034,8.81467511 97.5496034,9.98252321" id="Fill-35" fill="#6DAC6E"></path>
        <path d="M52.9007764,23.7270802 C52.9007764,24.8912152 51.930903,25.8402447 50.742211,25.8402447 C49.5461772,25.8402447 48.5763882,24.8912152 48.5763882,23.7270802 C48.5763882,22.5598228 50.742211,19.2610886 50.742211,19.2610886 C50.742211,19.2610886 52.9007764,22.5592321 52.9007764,23.7270802" id="Fill-37" fill="#6DAC6E"></path>
        <path d="M47.189308,4.52646414 C47.189308,5.69059916 46.2194346,6.63962869 45.0307426,6.63962869 C43.8347089,6.63962869 42.8649198,5.69059916 42.8649198,4.52646414 C42.8649198,3.35920675 45.0307426,0.0604725738 45.0307426,0.0604725738 C45.0307426,0.0604725738 47.189308,3.35861603 47.189308,4.52646414" id="Fill-39" fill="#6DAC6E"></path>
        <path d="M11.5050127,6.69293671 C11.5050127,7.85707173 10.5352236,8.80610127 9.34653165,8.80610127 C8.1504135,8.80610127 7.18062447,7.85707173 7.18062447,6.69293671 C7.18062447,5.52567932 9.34653165,2.22694515 9.34653165,2.22694515 C9.34653165,2.22694515 11.5050127,5.52508861 11.5050127,6.69293671" id="Fill-41" fill="#6DAC6E"></path>
        <path d="M13.6672236,57.5594515 C13.6672236,58.7235865 12.6973502,59.672616 11.5086582,59.672616 C10.3126245,59.672616 9.34283544,58.7235865 9.34283544,57.5594515 C9.34283544,56.3921941 11.5086582,53.0934599 11.5086582,53.0934599 C11.5086582,53.0934599 13.6672236,56.3916034 13.6672236,57.5594515" id="Fill-43" fill="#6DAC6E"></path>
        <path d="M28.6030633,13.2721266 C28.6030633,14.4362616 27.6332743,15.3852911 26.4445823,15.3852911 C25.2484641,15.3852911 24.2786751,14.4362616 24.2786751,13.2721266 C24.2786751,12.1048692 26.4445823,8.80613502 26.4445823,8.80613502 C26.4445823,8.80613502 28.6030633,12.1042785 28.6030633,13.2721266" id="Fill-45" fill="#6DAC6E"></path>
        <path d="M35.8636456,37.3041519 C35.8636456,38.4682869 34.8938565,39.4173165 33.7051646,39.4173165 C32.5090464,39.4173165 31.5392574,38.4682869 31.5392574,37.3041519 C31.5392574,36.1368945 33.7051646,32.8380759 33.7051646,32.8380759 C33.7051646,32.8380759 35.8636456,36.1363038 35.8636456,37.3041519" id="Fill-47" fill="#6DAC6E"></path>
        <path d="M67.9072743,5.63990717 C67.9072743,6.80404219 66.9374008,7.75307173 65.7487089,7.75307173 C64.5526751,7.75307173 63.5828861,6.80404219 63.5828861,5.63990717 C63.5828861,4.47264979 65.7487932,1.17391561 65.7487932,1.17391561 C65.7487932,1.17391561 67.9072743,4.47205907 67.9072743,5.63990717" id="Fill-49" fill="#6DAC6E"></path>
        <path d="M185.680253,94.1594093 C184.915021,94.1594093 184.294684,93.5390717 184.294684,92.7738397 C184.294684,92.0085232 184.915021,91.3881857 185.680253,91.3881857 C186.445485,91.3881857 187.065823,92.0085232 187.065823,92.7738397 C187.065823,93.5390717 186.445485,94.1594093 185.680253,94.1594093 M195.845823,103.632489 C195.747848,105.698903 193.510211,107.081688 191.681435,105.880591 C190.588776,105.163038 190.467511,104.009958 190.469958,102.832236 L190.470886,94.4988186 C190.470886,88.5333333 185.591392,83.6975527 179.626835,83.6975527 L179.418565,83.6975527 L173.475949,83.6975527 C173.477384,85.7597468 173.478819,87.8229536 173.475949,89.8851477 C173.474937,91.4789873 173.41654,93.0300422 174.094093,94.5315612 C175.263797,97.12827 177.881857,98.7001688 180.695274,98.7001688 L180.704304,98.7006751 C182.086582,98.6921519 183.605316,99.1552743 184.656118,100.064895 C185.766414,101.024388 186.211392,102.261603 186.319325,103.576793 L186.319325,103.637215 C186.354093,104.403207 186.463882,105.138819 186.747342,105.932405 C187.832827,108.967932 190.986245,110.823291 194.159662,110.358228 C197.565654,109.858987 199.817975,106.977975 199.976878,103.632489 C200.100928,100.975865 195.970802,100.981097 195.845823,103.632489" id="Fill-51" fill="#BBB6B4"></path>
    </g>
</svg>
