<svg width="30px" height="25px" viewBox="39 8 30 25" version="1.1" xmlns="http://www.w3.org/2000/svg" xmlns:xlink="http://www.w3.org/1999/xlink">
    <g fill="F8F9F7" fill-rule="evenodd" transform="translate(39.000000, 8.057143)">
        <path d="M9.24097561,23.8943415 C20.2126829,23.8943415 26.2126829,14.7398551 26.2126829,6.80140767 C26.2126829,6.54138794 26.2074244,6.28254732 26.1958439,6.02487596 C27.3605268,5.17689115 28.3728195,4.11867387 29.1712585,2.91403275 C28.102478,3.39248948 26.9523317,3.71457868 25.7457951,3.85981359 C26.9773073,3.11607052 27.9227707,1.93956063 28.3688195,0.537028223 C27.2163317,1.2251377 25.940039,1.72526028 24.5811122,1.99527282 C23.4926244,0.827576655 21.9429659,0.0972261324 20.2270634,0.0972261324 C16.9330146,0.0972261324 14.2617951,2.78762404 14.2617951,6.10392439 C14.2617951,6.57534585 14.3141268,7.03389554 14.4164683,7.47373693 C9.45890732,7.22250146 5.06290732,4.83197666 2.12085854,1.19702613 C1.60858537,2.08482502 1.3132,3.1161 1.3132,4.21648955 C1.3132,6.30073484 2.36627317,8.14071115 3.96763902,9.21712578 C2.98900488,9.18667371 2.0696878,8.91611289 1.26617561,8.46576774 C1.26529756,8.49097284 1.26529756,8.51554614 1.26529756,8.54248451 C1.26529756,11.4518991 3.32139512,13.8810295 6.05076098,14.4314699 C5.54953171,14.5690898 5.02217561,14.6428814 4.47788293,14.6428814 C4.09411707,14.6428814 3.72022439,14.6048399 3.35680976,14.5345423 C4.11620488,16.92152 6.31827317,18.6585221 8.92900488,18.7070615 C6.8874439,20.3186866 4.31563902,21.2785674 1.52051707,21.2785674 C1.03963902,21.2785674 0.564585366,21.2510199 0.0976878049,21.1954079 C2.73759024,22.8995919 5.87222439,23.8939612 9.24129756,23.8939612" id="Shape" fill="#F8F9F7"></path>
    </g>
</svg>
