<?xml version="1.0" encoding="utf-8"?>
<!-- Generator: Adobe Illustrator 18.0.0, SVG Export Plug-In . SVG Version: 6.00 Build 0)  -->
<!DOCTYPE svg PUBLIC "-//W3C//DTD SVG 1.1//EN" "http://www.w3.org/Graphics/SVG/1.1/DTD/svg11.dtd">
<svg version="1.1" xmlns="http://www.w3.org/2000/svg" xmlns:xlink="http://www.w3.org/1999/xlink" x="0px" y="0px"
	 viewBox="0 0 960 875.9" enable-background="new 0 0 960 875.9" xml:space="preserve">
<g id="back">
</g>
<g id="text">
	<g>
		<path fill="#FFFFFF" d="M106.4,764.8V489.4c0-10.4,5.2-15.6,15.6-15.6h15.6c10.2,0,15.4,5.2,15.4,15.6v156.9l55.4-81.5
			c2.8-4.1,5.8-7,8.8-8.8c3.1-1.8,7.3-2.7,12.6-2.7h21.9c5.2,0,8.6,2,10.1,6c1.5,4,0.8,7.8-2.3,11.3L201.4,645l60.4,118.5
			c2.2,4.1,2.5,7.9,0.7,11.5c-1.8,3.6-5.2,5.4-10.2,5.4h-20c-5.5,0-9.7-0.9-12.5-2.6c-2.9-1.8-5.3-4.7-7.3-8.9l-40.8-85.1L153,707.9
			v56.9c0,10.4-5.1,15.6-15.4,15.6H122C111.6,780.3,106.4,775.2,106.4,764.8z"/>
		<g>
			<path fill="#FFFFFF" d="M319.5,553h-15.6c-10.4,0-15.9,5.3-15.9,15.5v196.2c0,10.4,5.5,15.2,15.9,15.2h15.6
				c10.2,0,15.5-4.8,15.5-15.2V568.5C335,558.3,329.7,553,319.5,553z"/>
		</g>
		<path fill="#FFFFFF" d="M400.9,553h-15.6c-10.4,0-15.3,5.3-15.3,15.5v226.1c0,11.1-4.7,16.6-13.8,16.6c-3.1,0-7.2-0.6-12.3-1.7
			c-4.3-1-7.8,0-10.2,2.9c-2.4,2.9-3.7,7.2-3.7,12.6v12.4c0,4.9,1.1,8.5,3.2,10.6c2.1,2.2,5.7,3.8,10.6,4.9
			c5.5,1.1,11.5,1.7,18.1,1.7c16.4,0,29.5-4.7,39.4-14c9.9-9.3,14.7-24.3,14.7-45V568.5C416,558.3,411.1,553,400.9,553z"/>
		<path fill="#FFFFFF" d="M443.4,716.5v-0.8c0-21.8,6.6-38.6,19.7-50.6c13.1-12,31.8-18,55.9-18h28.8v-19.4
			c0-23.9-9.6-35.8-28.8-35.8c-7.9,0-13.9,2.2-18.2,6.5c-4.3,4.4-6.4,9.8-6.4,16.4c0,8.8-4.5,13.3-13.5,13.3h-17.7
			c-10.2,0-15.4-5.2-15.4-15.6c0-18.7,6.5-34,19.5-46.1c13-12.1,30.2-18.1,51.7-18.1c22.5,0,40.6,6.6,54.5,19.7
			c13.9,13.1,20.8,32,20.8,56.7v84c0,24.7-6.9,43.6-20.8,56.7c-13.9,13.1-32.1,19.7-54.5,19.7c-22.3,0-40.5-6.1-54.5-18.4
			C450.4,754.5,443.4,737.7,443.4,716.5z M497.9,689.3c-5.3,4.8-8,12.3-8,22.4c0,10.1,2.7,17.6,8,22.5c5.3,4.9,12.4,7.4,21.1,7.4
			c19.2,0,28.8-11.9,28.8-35.8V682H519C510.3,682,503.3,684.4,497.9,689.3z"/>
		<path fill="#FFFFFF" d="M622.8,764.8v-140c0-24.7,6.9-43.6,20.8-56.7c13.9-13.1,32.1-19.7,54.5-19.7c22.5,0,40.7,6.6,54.6,19.8
			c14,13.2,21,32.1,21,56.6v140c0,10.4-5.2,15.6-15.6,15.6h-15.6c-10.2,0-15.4-5.2-15.4-15.6V627.7c0-23.9-9.7-35.8-29.1-35.8
			c-19.2,0-28.8,11.9-28.8,35.8v137.1c0,10.4-5.2,15.6-15.6,15.6h-15.4C628,780.3,622.8,775.2,622.8,764.8z"/>
		<g>
			<path fill="#FFFFFF" d="M838.2,553h-15.6c-10.4,0-15.6,5.3-15.6,15.5v196.2c0,10.4,5.2,15.2,15.6,15.2h15.6
				c10.2,0,14.8-4.8,14.8-15.2V568.5C853,558.3,848.4,553,838.2,553z"/>
		</g>
	</g>
</g>
<g id="hands">
	<g>
		<g>
			<path fill="#FFFFFF" d="M747.6,176c19.2,10.4,31.5,66.1,38.1,84.9c12.6,35.8,17.3,53.9,0.9,88.2c-15.6,32.6-33.2,74.7-60.4,99.6
				c-32.3,29.6-88.2,44.2-129.2,56.4c-38.3,11.4-96.4,11.6-94.4-41.3c2.2-57.9,66.9-84.8,116.6-92c19.6-2.9,31.7-6.4,48.3-18.3
				c9.1-6.5,37.1-36.4,45.8-17c9.2,20.6-10.7,47.5-25,60.2c-6.6,5.9-55.9,42.6-61.3,37.3c15.3,15,63.9-24.1,73.4-36.1
				c16.5-20.9,28.3-49.1,40.7-72.6c12.4-23.6,2.8-45.9-3.5-70.9C736.3,248.5,723.3,162.8,747.6,176C757,181,738.3,170.9,747.6,176z"
				/>
		</g>
		<g>
			<path fill="#FFFFFF" d="M211.9,176c-19.2,10.4-31.5,66.1-38.1,84.9c-12.6,35.8-17.3,53.9-0.9,88.2c15.6,32.6,33.2,74.7,60.4,99.6
				c32.3,29.6,88.2,44.2,129.2,56.4c38.3,11.4,96.4,11.6,94.4-41.3c-2.2-57.9-66.9-84.8-116.6-92c-19.6-2.9-31.7-6.4-48.3-18.3
				c-9.1-6.5-37.1-36.4-45.8-17c-9.2,20.6,10.7,47.5,25,60.2c6.6,5.9,55.9,42.6,61.3,37.3c-15.3,15-63.9-24.1-73.4-36.1
				c-16.5-20.9-28.3-49.1-40.7-72.6c-12.4-23.6-2.8-45.9,3.5-70.9C223.3,248.5,236.2,162.8,211.9,176
				C202.6,181,221.3,170.9,211.9,176z"/>
		</g>
		<g>
			<path fill="#FFFFFF" d="M226.1,140.6c-5.6-11.3,67.9-65.8,76.5-71.6c32.5-22.1,65.7-29.8,104.7-39.7C495.2,7,599.2,26.3,675,82.5
				c37.3,27.6,72.9,53.7,26.7,90.5c-39.8,31.6-113.3,12.9-146.3-22c-12.9-13.6-116.7-33.7-113.1-43.5
				c17.4-46.3,105.2-27.8,142.3-6.2c2.7,1.6,4.2-3.8,6.2-2.1C533,53.5,434.2,65.3,367.2,83.7C346.9,89.3,243.1,175.1,226.1,140.6
				C221.4,131,230.8,150.1,226.1,140.6z"/>
		</g>
	</g>
</g>
<g id="tree">
</g>
</svg>
