<?xml version="1.0" encoding="utf-8"?>
<!-- Generator: Adobe Illustrator 18.0.0, SVG Export Plug-In . SVG Version: 6.00 Build 0)  -->
<!DOCTYPE svg PUBLIC "-//W3C//DTD SVG 1.1//EN" "http://www.w3.org/Graphics/SVG/1.1/DTD/svg11.dtd">
<svg version="1.1" id="Layer_1" xmlns="http://www.w3.org/2000/svg" xmlns:xlink="http://www.w3.org/1999/xlink" x="0px" y="0px"
	 viewBox="0 0 1520 614" enable-background="new 0 0 1520 614" xml:space="preserve">
<g>
	<path fill="#499A4A" d="M632.2,164.7C571.8,86.8,467.7,29.5,351.8,29.5c-126.3,0-231.3,64.8-288.6,154.8
		c-14.1,22.1-20.9,36.9-28.1,62c-6.5,22.8-19,51.6-19,76.1c0,39.4,13.9,74.5,30.1,105c13.6,25.6,27.3,47.9,50.2,66.9
		c61.6,51.2,153.1,77.9,255.3,77.9c101.4,0,192.3-26.4,253.8-76.7c22.8-18.7,38.6-46.7,52.4-71.9c17-31,29.4-60.8,29.4-101.3
		c0-29.9-11.1-58.7-20.6-85.8C657,208.6,650.5,188.4,632.2,164.7z M234.6,529.8c-41-12.2-96.9-26.8-129.2-56.4
		c-27.2-24.9-44.8-67-60.4-99.6c-16.4-34.2-11.7-52.4,0.9-88.2c6.6-18.8,18.9-74.5,38.1-84.9c-9.3,5.1,9.3-5.1,0,0
		c24.3-13.2,11.4,72.5,9.9,78.5c-6.3,25-15.9,47.3-3.5,70.9c12.3,23.5,24.2,51.7,40.7,72.6c9.5,12,58.1,51.1,73.4,36.1
		c-5.4,5.3-54.6-31.4-61.3-37.3c-14.3-12.7-34.2-39.6-25-60.2c8.7-19.4,36.7,10.4,45.8,17c16.6,11.9,28.7,15.4,48.3,18.3
		c49.7,7.2,114.4,34.1,116.6,92C331,541.4,272.9,541.2,234.6,529.8z M314.4,132.2c17.4-46.3,105.2-27.8,142.3-6.2
		c2.7,1.6,4.2-3.8,6.2-2.1C405,78.2,306.2,90,239.3,108.5C219,114,115.2,199.8,98.2,165.3c4.7,9.5-4.7-9.5,0,0
		c-5.6-11.3,67.9-65.8,76.5-71.6c32.5-22.1,65.7-29.8,104.7-39.7c87.9-22.3,191.8-3,267.7,53.3c37.3,27.6,72.9,53.7,26.7,90.5
		c-39.8,31.6-113.3,12.9-146.3-22C414.6,162.1,310.8,141.9,314.4,132.2z M658.7,373.8c-15.6,32.6-33.2,74.7-60.4,99.6
		c-32.3,29.6-88.2,44.2-129.2,56.4c-38.3,11.4-96.4,11.6-94.4-41.3c2.2-57.9,66.9-84.8,116.6-92c19.6-2.9,31.7-6.4,48.3-18.3
		c9.1-6.5,37.1-36.4,45.8-17c9.2,20.6-10.7,47.5-25,60.2c-6.6,5.9-55.9,42.6-61.3,37.3c15.3,15,63.9-24.1,73.4-36.1
		c16.5-20.9,28.3-49.1,40.7-72.6c12.4-23.6,2.8-45.9-3.5-70.9c-1.5-5.9-14.4-91.7,9.9-78.5c-9.3-5.1,9.3,5.1,0,0
		c19.2,10.4,31.5,66.1,38.1,84.9C670.4,321.4,675.1,339.6,658.7,373.8z"/>
	<path fill="#499A4A" d="M833.5,315l58.1-74.5c3.1-3.5,3.9-7.3,2.3-11.3c-1.5-4-4.9-6-10.1-6h-21.9c-5.3,0-9.5,0.9-12.6,2.7
		c-3.1,1.8-6,4.8-8.8,8.8L785,316.2V159.4c0-10.4-5.1-15.6-15.4-15.6h-15.6c-10.4,0-15.6,5.2-15.6,15.6v275.4
		c0,10.4,5.2,15.6,15.6,15.6h15.6c10.2,0,15.4-5.2,15.4-15.6v-56.9l18.7-24.2l40.8,85.1c2,4.2,4.4,7.2,7.3,8.9
		c2.9,1.8,7.1,2.6,12.5,2.6h20c5.1,0,8.5-1.8,10.2-5.4c1.8-3.6,1.5-7.4-0.7-11.5L833.5,315z"/>
	<path fill="#499A4A" d="M967,434.8V238.5c0-10.2-5.3-15.5-15.5-15.5h-15.6c-10.4,0-15.9,5.3-15.9,15.5v196.2
		c0,10.4,5.5,15.2,15.9,15.2h15.6C961.7,450,967,445.2,967,434.8z"/>
	<path fill="#499A4A" d="M1032.9,223h-15.6c-10.4,0-15.3,5.3-15.3,15.5v226.1c0,11.1-4.7,16.6-13.8,16.6c-3.1,0-7.2-0.6-12.3-1.7
		c-4.3-1-7.8,0-10.2,2.9c-2.4,2.9-3.7,7.2-3.7,12.6v12.4c0,4.9,1.1,8.5,3.2,10.6c2.1,2.2,5.7,3.8,10.6,4.9
		c5.5,1.1,11.5,1.7,18.1,1.7c16.4,0,29.5-4.7,39.4-14c9.9-9.3,14.7-24.3,14.7-45V238.5C1048,228.3,1043.1,223,1032.9,223z"/>
	<path fill="#499A4A" d="M1151.1,218.3c-21.5,0-38.7,6-51.7,18.1c-13,12.1-19.5,27.4-19.5,46.1c0,10.4,5.1,15.6,15.4,15.6h17.7
		c9,0,13.5-4.4,13.5-13.3c0-6.6,2.1-12.1,6.4-16.4c4.3-4.3,10.3-6.5,18.2-6.5c19.2,0,28.8,11.9,28.8,35.8v19.4h-28.8
		c-24.1,0-42.8,6-55.9,18c-13.1,12-19.7,28.9-19.7,50.6v0.8c0,21.2,7,37.9,21.1,50.2c14,12.3,32.2,18.4,54.5,18.4
		c22.5,0,40.6-6.6,54.5-19.7c13.9-13.1,20.8-32,20.8-56.7v-84c0-24.7-6.9-43.6-20.8-56.7C1191.7,224.9,1173.5,218.3,1151.1,218.3z
		 M1179.9,375.8c0,23.9-9.6,35.8-28.8,35.8c-8.7,0-15.7-2.5-21.1-7.4c-5.3-4.9-8-12.4-8-22.5c0-10.1,2.7-17.6,8-22.4
		c5.3-4.8,12.4-7.3,21.1-7.3h28.8V375.8z"/>
	<path fill="#499A4A" d="M1330.3,218.3c-22.5,0-40.6,6.6-54.5,19.7c-13.9,13.1-20.8,32-20.8,56.7v140c0,10.4,5.2,15.6,15.6,15.6
		h15.4c10.4,0,15.6-5.2,15.6-15.6V297.7c0-23.9,9.6-35.8,28.8-35.8c19.4,0,29.1,11.9,29.1,35.8v137.1c0,10.4,5.1,15.6,15.4,15.6
		h15.6c10.4,0,15.6-5.2,15.6-15.6v-140c0-24.6-7-43.4-21-56.6C1371,224.9,1352.7,218.3,1330.3,218.3z"/>
	<path fill="#499A4A" d="M1470.2,223h-15.6c-10.4,0-15.6,5.3-15.6,15.5v196.2c0,10.4,5.2,15.2,15.6,15.2h15.6
		c10.2,0,14.8-4.8,14.8-15.2V238.5C1485,228.3,1480.4,223,1470.2,223z"/>
</g>
</svg>
