<!DOCTYPE svg PUBLIC "-//W3C//DTD SVG 1.1//EN" "http://www.w3.org/Graphics/SVG/1.1/DTD/svg11.dtd">
<svg version="1.1" xmlns="http://www.w3.org/2000/svg" xmlns:xlink="http://www.w3.org/1999/xlink" width="94" height="80"  xml:space="preserve">
    <path id="icon" stroke="none" fill="#f8f9f7" d="M 91.22,0.17 C 89.48,0.89 2.82,31.57 1.19,32.19 -0.24,32.7 -0.55,33.93 1.19,34.65 3.23,35.47 20.58,42.45 20.58,42.45 L 20.58,42.45 32.12,47.07 C 32.12,47.07 87.44,6.22 88.16,5.71 88.87,5.2 43.55,51.48 43.55,51.48 L 49.88,54.66 49.88,54.66 C 49.88,54.66 73.66,67.49 75.3,68.41 76.83,69.23 78.66,68.52 79.18,66.67 79.69,64.51 93.67,3.76 93.98,2.43 94.18,0.68 93.06,-0.45 91.22,0.17 Z M 31.4,78.78 C 31.4,80.01 32.12,80.42 33.14,79.5 34.47,78.37 51.72,60.51 51.72,60.51 L 31.61,51.48 31.4,78.78 Z M 31.4,78.78" />
</svg>
