<!DOCTYPE svg PUBLIC "-//W3C//DTD SVG 1.1//EN" "http://www.w3.org/Graphics/SVG/1.1/DTD/svg11.dtd">
<svg version="1.1" xmlns="http://www.w3.org/2000/svg" xmlns:xlink="http://www.w3.org/1999/xlink" width="94" height="80"  xml:space="preserve">
    <path id="bezier" stroke="none" fill="rgb(246, 248, 245)" d="M 20.34,53.36 C 12.99,53.36 7,59.33 7,66.68 7,74.02 12.98,80 20.34,80 27.7,80 33.68,74.03 33.68,66.68 33.68,59.34 27.69,53.36 20.34,53.36 Z M 86.93,71.14 C 86.65,32.53 52.85,0 12.87,0 11.94,0 11.19,0.75 11.19,1.68 L 11.19,17.1 C 11.19,18.02 11.94,18.78 12.87,18.78 44.31,18.78 68.03,41.49 68.03,71.62 68.03,72.55 68.78,73.3 69.71,73.3 L 85.25,73.3 C 85.28,73.3 85.3,73.3 85.32,73.3 86.25,73.3 87,72.55 87,71.62 87,71.46 86.97,71.29 86.93,71.14 Z M 12.87,26.29 C 11.94,26.29 11.19,27.04 11.19,27.97 L 11.19,40.29 C 11.19,41.21 11.94,41.97 12.87,41.97 32.93,41.97 44.9,53.06 44.9,71.63 44.9,72.55 45.65,73.3 46.58,73.3 L 58.82,73.3 C 59.75,73.3 60.5,72.55 60.5,71.63 60.5,47.89 37.8,26.29 12.87,26.29 Z M 12.87,26.29" />
</svg>
