<?xml version="1.0" encoding="UTF-8"?>
<!DOCTYPE svg PUBLIC "-//W3C//DTD SVG 1.1//EN" "http://www.w3.org/Graphics/SVG/1.1/DTD/svg11.dtd">
<svg version="1.1" xmlns="http://www.w3.org/2000/svg" xmlns:xlink="http://www.w3.org/1999/xlink" width="300" height="200"  xml:space="preserve">
    <path id="bezier3" stroke="none" fill="rgb(0, 0, 0)" d="M 137.38,115.66 L 162.83,101.9 C 154.19,97.41 145.87,93.06 137.38,88.66 137.38,97.75 137.38,106.59 137.38,115.66 Z M 189.14,31.2 L 103.83,31.2 C 87.98,31.2 75,44.16 75,60 L 75,145.14 C 75,160.99 87.96,173.97 103.83,173.97 L 189.14,173.97 C 204.99,173.97 217.97,161.02 217.97,145.14 L 217.97,60 C 217.94,44.16 204.99,31.2 189.14,31.2 Z M 195.09,122.72 C 194.58,126.47 193.43,130.07 190.37,132.73 187.74,134.99 184.6,135.85 181.28,135.99 169.95,136.45 158.63,136.82 149.16,137.13 137.46,136.82 127.65,136.59 117.84,136.25 115.33,136.16 112.81,135.85 110.32,135.39 105.2,134.45 101.77,131.44 100.51,126.38 99.71,123.18 99.22,119.86 99,116.57 98.62,111.25 98.37,105.93 98.48,100.61 98.59,94.49 99.02,88.37 99.62,82.28 99.85,79.96 100.68,77.62 101.71,75.5 103.74,71.33 107.43,69.32 111.95,69.01 118.07,68.58 124.22,68.18 130.37,68.12 142.84,68.01 155.34,68.04 167.81,68.21 173.33,68.29 178.85,68.61 184.34,69.3 189.06,69.87 192.23,72.78 193.89,77.3 195.26,80.96 195.58,84.83 195.84,88.66 196.58,100.01 196.64,111.39 195.09,122.72 Z M 195.09,122.72" />
</svg>
